<?xml version="1.0" standalone="no"?>
<!DOCTYPE svg PUBLIC "-//W3C//DTD SVG 20010904//EN"
 "http://www.w3.org/TR/2001/REC-SVG-20010904/DTD/svg10.dtd">
<svg version="1.0" xmlns="http://www.w3.org/2000/svg"
 width="1026.000000pt" height="532.000000pt" viewBox="0 0 1026.000000 532.000000"
 preserveAspectRatio="xMidYMid meet">

<g transform="translate(0.000000,532.000000) scale(0.100000,-0.100000)"
fill="#000000" stroke="none">
<path d="M7730 4260 c-572 -97 -982 -529 -1089 -1150 -38 -217 -47 -441 -25
-617 l5 -43 182 0 182 0 0 237 c0 308 29 494 109 690 125 304 341 494 652 569
94 23 131 27 269 27 228 0 392 -38 536 -123 85 -50 199 -172 262 -278 27 -45
55 -82 63 -82 22 0 68 25 166 92 98 65 95 54 42 160 -120 238 -351 416 -632
487 -210 53 -515 66 -722 31z"/>
<path d="M2432 4208 c-11 -29 -23 -64 -27 -78 -7 -24 -81 -237 -217 -625 -33
-93 -70 -201 -83 -240 -13 -38 -60 -173 -105 -300 -45 -126 -101 -286 -125
-355 -24 -69 -47 -133 -50 -142 -7 -17 5 -18 169 -18 157 0 176 2 184 18 5 9
112 323 237 697 125 374 232 690 238 702 12 28 47 37 67 17 8 -8 121 -333 250
-722 l236 -707 183 -3 c167 -2 183 -1 177 14 -3 9 -35 100 -70 203 -36 102
-137 393 -226 646 -89 253 -190 543 -225 645 -35 102 -73 211 -85 243 l-21 57
-244 0 -244 0 -19 -52z"/>
<path d="M4157 4253 c-6 -6 -10 -280 -4 -285 1 -1 218 -5 482 -8 l480 -5 3
-752 2 -753 175 0 175 0 2 753 3 752 483 3 482 2 0 150 0 150 -1138 0 c-626 0
-1142 -3 -1145 -7z"/>
<path d="M1591 2261 c-6 -10 -28 -59 -50 -109 -31 -72 -36 -92 -25 -96 9 -4
18 4 24 19 9 22 15 25 64 25 47 0 56 -3 71 -26 11 -17 20 -23 26 -17 12 12
-67 209 -87 217 -8 3 -18 -3 -23 -13z m41 -81 l16 -39 -29 -6 c-16 -4 -33 -4
-38 -1 -9 6 17 86 28 86 3 0 13 -18 23 -40z"/>
<path d="M4504 2265 c-3 -6 -3 -54 -2 -106 l3 -94 61 -3 c54 -3 65 0 92 23 56
47 52 139 -7 169 -36 18 -142 26 -147 11z m138 -42 c12 -11 18 -31 18 -59 0
-50 -21 -70 -80 -76 l-35 -3 -3 84 -3 84 43 -7 c23 -4 50 -14 60 -23z"/>
<path d="M5003 2272 c-22 -3 -23 -7 -23 -108 l0 -104 70 0 c51 0 70 4 70 13 0
9 -16 13 -52 12 l-53 0 0 35 c0 35 0 35 48 38 26 2 47 7 47 12 0 5 -21 10 -47
12 -46 3 -48 4 -48 33 0 29 2 30 53 33 28 2 52 7 52 12 0 9 -80 17 -117 12z"/>
<path d="M5815 2274 c-5 -1 -23 -5 -38 -8 -16 -4 -36 -20 -47 -39 -48 -79 -5
-167 82 -167 44 1 78 18 78 40 0 8 -7 10 -22 5 -13 -4 -39 -9 -59 -12 -30 -4
-39 -1 -53 18 -20 29 -20 61 -1 98 18 36 57 47 97 26 34 -16 44 -14 35 8 -6
15 -54 36 -72 31z"/>
<path d="M6707 2273 c-3 -4 -25 -54 -50 -110 -41 -91 -44 -103 -27 -103 10 0
22 9 25 20 5 17 15 20 60 20 46 0 55 -3 70 -26 10 -16 20 -23 26 -17 6 6 -8
50 -34 113 -41 97 -58 123 -70 103z m32 -85 c16 -48 14 -53 -18 -55 -39 -3
-44 7 -26 51 19 45 30 45 44 4z"/>
<path d="M1980 2190 c0 -73 3 -83 25 -105 18 -19 35 -25 65 -25 30 0 47 6 65
25 22 22 25 32 25 105 0 61 -3 80 -14 80 -10 0 -15 -21 -18 -81 -5 -88 -12
-99 -65 -99 -43 0 -53 21 -53 109 0 56 -3 71 -15 71 -12 0 -15 -16 -15 -80z"/>
<path d="M2430 2261 c0 -11 32 -23 51 -19 11 2 15 -18 19 -87 4 -75 8 -90 23
-93 15 -3 17 7 17 93 l0 96 32 -3 c18 -2 33 2 35 10 4 9 -18 12 -86 12 -50 0
-91 -4 -91 -9z"/>
<path d="M3160 2260 c0 -5 15 -10 34 -10 l34 0 7 -87 c7 -100 10 -113 25 -113
6 0 10 38 10 100 l0 100 35 0 c19 0 35 5 35 10 0 6 -37 10 -90 10 -53 0 -90
-4 -90 -10z"/>
<path d="M3610 2160 c0 -93 2 -109 15 -104 10 4 15 20 15 50 0 49 10 55 33 22
29 -44 58 -68 82 -68 16 0 25 6 25 15 0 8 -9 15 -19 15 -25 0 -69 53 -49 59
45 14 60 59 32 99 -13 19 -24 22 -75 22 l-59 0 0 -110z m103 73 c4 -2 7 -15 7
-28 0 -25 -34 -40 -64 -29 -16 6 -22 54 -10 67 7 6 49 0 67 -10z"/>
<path d="M4078 2183 c-53 -126 -52 -123 -34 -123 8 0 20 9 26 20 8 16 21 20
60 20 41 0 51 -4 68 -27 18 -24 22 -26 27 -11 4 9 0 32 -9 50 -8 18 -26 60
-39 93 -35 91 -54 87 -99 -22z m63 -45 c-37 -11 -45 4 -26 48 l16 39 18 -40
18 -40 -26 -7z"/>
<path d="M6162 2169 c2 -83 6 -102 20 -110 15 -8 17 -3 20 43 l3 53 53 3 52 3
2 -33 c1 -18 2 -41 1 -50 0 -11 8 -18 19 -18 16 0 18 9 18 83 0 86 -7 127 -21
127 -4 0 -11 -19 -14 -43 l-7 -43 -51 1 -52 0 -3 43 c-3 34 -7 42 -23 42 -20
0 -20 -5 -17 -101z"/>
<path d="M7090 2165 l0 -105 65 0 c50 0 65 3 65 14 0 11 -14 16 -47 18 l-48 3
-3 88 c-2 68 -6 87 -17 87 -12 0 -15 -20 -15 -105z"/>
<path d="M7496 2228 c-3 -24 -5 -70 -3 -103 l2 -60 68 -3 c55 -2 67 0 67 13 0
11 -12 15 -50 15 l-50 0 0 90 c0 72 -3 90 -14 90 -10 0 -17 -15 -20 -42z"/>
<path d="M7896 2244 c-4 -15 -4 -62 0 -105 l7 -79 69 0 c44 0 67 4 63 10 -3 6
-28 10 -56 10 l-49 0 0 41 c0 40 1 40 30 34 37 -8 70 2 70 21 0 10 -13 14 -50
14 -49 0 -50 1 -50 30 0 29 1 30 50 30 28 0 50 5 50 10 0 6 -28 10 -64 10 -61
0 -64 -1 -70 -26z"/>
<path d="M8310 2165 c0 -87 3 -105 15 -105 12 0 15 15 15 75 0 41 4 75 8 75 4
0 15 -13 25 -29 27 -47 97 -131 107 -131 6 0 10 45 10 110 0 90 -3 110 -15
110 -11 0 -15 -18 -17 -77 l-3 -78 -59 78 c-32 42 -65 77 -72 77 -11 0 -14
-22 -14 -105z"/>
<path d="M8831 2256 c-58 -32 -69 -119 -22 -167 27 -27 34 -29 100 -26 l71 2
0 37 c0 57 -6 64 -50 60 -39 -4 -47 -22 -9 -22 10 0 19 -6 19 -13 0 -41 -88
-53 -114 -15 -49 69 21 156 99 124 24 -11 37 -12 41 -4 20 32 -86 51 -135 24z"/>
<path d="M9260 2165 l0 -105 70 0 c54 0 70 3 70 14 0 11 -13 14 -52 13 l-53
-2 0 35 c0 35 0 35 48 38 28 2 47 8 47 15 0 8 -17 12 -47 13 -45 0 -48 2 -51
27 -3 26 -1 27 40 28 24 1 49 1 56 0 6 -1 12 5 12 14 0 12 -14 15 -70 15 l-70
0 0 -105z"/>
<path d="M1630 1898 c-6 -13 -66 -183 -134 -378 l-123 -355 180 -3 c138 -2
182 1 188 10 5 7 24 60 43 118 19 58 73 217 120 354 47 136 86 254 86 262 0
11 -32 14 -175 14 -172 0 -176 0 -185 -22z"/>
<path d="M3390 1911 c0 -10 198 -593 233 -686 l23 -60 186 -3 186 -2 -23 72
c-13 40 -51 150 -84 243 -32 94 -81 232 -108 308 l-48 137 -182 0 c-101 0
-183 -4 -183 -9z"/>
<path d="M5120 1540 l0 -380 175 0 175 0 0 380 0 380 -175 0 -175 0 0 -380z"/>
<path d="M6760 1915 c0 -15 68 -139 115 -211 181 -272 465 -462 800 -534 128
-27 389 -37 532 -21 286 33 552 164 708 347 102 120 151 204 210 362 l24 62
-168 0 -167 0 -34 -65 c-71 -138 -187 -250 -325 -316 -305 -147 -748 -120
-1016 61 -87 59 -187 160 -243 248 l-47 72 -194 0 c-107 0 -195 -2 -195 -5z"/>
</g>
</svg>
