<?xml version="1.0" encoding="UTF-8"?>
<svg id="Layer_1" data-name="Layer 1" xmlns="http://www.w3.org/2000/svg" xmlns:xlink="http://www.w3.org/1999/xlink" viewBox="0 0 500 91">
  <defs>
    <style>
      .cls-1 {
        fill: url(#linear-gradient);
      }

      .cls-2 {
        fill: #02275a;
      }
    </style>
    <linearGradient id="linear-gradient" x1="170.47" y1="45.5" x2="5" y2="45.5" gradientUnits="userSpaceOnUse">
      <stop offset=".08" stop-color="#109afa"/>
      <stop offset=".37" stop-color="#0967b3"/>
      <stop offset=".66" stop-color="#043973"/>
      <stop offset=".8" stop-color="#02275a"/>
    </linearGradient>
  </defs>
  <path class="cls-1" d="M169.29,33.17l-21.17,21.17c-1.57,1.57-4.11,1.57-5.67,0l-21.17-21.17c-1.57-1.57-1.57-4.11,0-5.67l21.17-21.17c1.57-1.57,4.11-1.57,5.67,0l21.17,21.17c1.57,1.57,1.57,4.11,0,5.67ZM86.65,6.05c-1.57-1.57-4.11-1.57-5.67,0l-21.17,21.17c-1.57,1.57-4.11,1.57-5.67,0L33.02,6.11c-1.57-1.57-4.11-1.57-5.67,0L6.18,27.28c-1.57,1.57-1.57,4.11,0,5.67l51.98,51.98c1.57,1.57,4.11,1.57,5.67,0l8.81-8.81,12.38-12.34c1.57-1.56,4.1-1.56,5.67,0l21.17,21.17c1.57,1.57,4.11,1.57,5.67,0l21.17-21.17c1.57-1.57,1.57-4.11,0-5.67L86.65,6.05Z"/>
  <g>
    <path class="cls-2" d="M262.43,20.89l-13.42,30.01c-.07,.15-.18,.27-.32,.36-.14,.08-.3,.12-.46,.12-.16,0-.32-.07-.44-.17-.13-.1-.22-.24-.28-.39l-9.8-29.74c-.12-.41-.37-.77-.71-1.02-.34-.26-.75-.4-1.18-.4h-7.9c-.43,0-.84,.13-1.19,.39-.34,.26-.6,.62-.72,1.03l-9.2,29.7c-.05,.16-.14,.29-.27,.39-.13,.1-.28,.16-.44,.17-.16,.01-.32-.03-.46-.11-.14-.08-.25-.21-.32-.35l-14.13-30.07c-.16-.34-.42-.63-.74-.84-.32-.2-.69-.31-1.07-.31h-7.7c-.33,0-.66,.09-.96,.25-.29,.16-.54,.39-.72,.68-.18,.28-.29,.61-.31,.94-.03,.33,.03,.67,.17,.98l21.97,47.5c.16,.35,.41,.64,.73,.85,.32,.21,.69,.32,1.07,.32h7.97c.43,0,.85-.14,1.19-.39,.34-.26,.6-.61,.73-1.03l7.78-26.81c.05-.17,.15-.31,.29-.41,.14-.1,.31-.16,.48-.16s.34,.06,.48,.16c.14,.1,.24,.25,.29,.41l8.39,26.86c.13,.41,.38,.77,.73,1.03,.34,.26,.76,.39,1.19,.39h7.97c.39,0,.76-.11,1.09-.32,.32-.21,.58-.51,.73-.87l21.06-47.47c.14-.31,.19-.64,.17-.98-.03-.34-.13-.66-.32-.94s-.43-.51-.73-.68c-.3-.16-.62-.24-.96-.24h-7.92c-.39,0-.76,.11-1.09,.32-.32,.21-.58,.51-.73,.87Z"/>
    <path class="cls-2" d="M335.53,19.77h-7.06c-.26,0-.52,.05-.77,.15s-.46,.25-.65,.44c-.18,.19-.33,.41-.43,.65-.1,.24-.15,.51-.15,.77v47.43c0,.53,.21,1.04,.58,1.42,.37,.38,.88,.59,1.41,.6h26.13c.53,0,1.04-.21,1.42-.59,.38-.38,.59-.89,.59-1.43v-7.1c0-.54-.21-1.05-.59-1.43-.38-.38-.89-.59-1.42-.59h-16.26c-.11,0-.21-.02-.31-.06-.1-.04-.19-.1-.26-.18-.07-.08-.13-.17-.17-.26-.04-.1-.06-.21-.06-.31V21.79c0-.27-.05-.53-.15-.77-.1-.25-.25-.47-.43-.66s-.41-.34-.65-.44c-.25-.1-.51-.15-.77-.15Z"/>
    <path class="cls-2" d="M373.08,19.77h-7.06c-.26,0-.52,.05-.77,.15s-.46,.25-.65,.44c-.18,.19-.33,.41-.43,.65-.1,.24-.15,.51-.15,.77v47.43c0,.53,.21,1.04,.58,1.42s.88,.59,1.41,.6h26.13c.53,0,1.04-.21,1.42-.59,.38-.38,.59-.89,.59-1.43v-7.1c0-.54-.21-1.05-.59-1.43-.38-.38-.89-.59-1.42-.59h-16.26c-.11,0-.21-.02-.31-.06-.1-.04-.19-.1-.26-.18-.08-.08-.14-.17-.18-.26-.04-.1-.06-.21-.06-.31V21.79c0-.27-.05-.53-.15-.77-.1-.25-.25-.47-.43-.66-.19-.19-.41-.34-.65-.44-.24-.1-.51-.15-.77-.15Z"/>
    <path class="cls-2" d="M403.51,71.24h31.39c.53,0,1.04-.21,1.42-.59,.38-.38,.59-.89,.59-1.43v-7.1c0-.54-.21-1.05-.59-1.43-.38-.38-.89-.59-1.42-.59h-21.46c-.11,0-.21-.02-.31-.06-.1-.04-.19-.1-.26-.18-.07-.08-.13-.17-.18-.26-.04-.1-.06-.21-.06-.31v-7.45c0-.21,.08-.42,.24-.57,.15-.15,.36-.24,.57-.24h21.46c.26,0,.53-.05,.77-.16,.24-.1,.46-.25,.65-.44s.33-.41,.43-.66,.15-.51,.14-.78v-7.1c0-.26-.05-.53-.15-.77-.1-.24-.25-.47-.44-.65-.19-.19-.41-.33-.65-.43-.24-.1-.5-.15-.77-.15h-21.44c-.21,0-.42-.09-.57-.24-.15-.15-.24-.36-.24-.57v-7.39c0-.11,.02-.21,.06-.31,.04-.1,.1-.19,.18-.26,.07-.07,.16-.13,.26-.17,.1-.04,.2-.06,.31-.06h21.46c.53,0,1.04-.22,1.41-.6,.37-.38,.58-.89,.58-1.42v-7.1c0-.54-.21-1.05-.59-1.43-.38-.38-.89-.59-1.42-.59h-31.37c-.51,.02-.99,.23-1.35,.59-.36,.36-.57,.85-.58,1.37v47.5c0,.52,.2,1.03,.56,1.4,.36,.38,.85,.6,1.37,.62Z"/>
    <path class="cls-2" d="M477.94,45.96c-.1-.14-.16-.31-.16-.49s.06-.35,.16-.49l16.65-22.04c.23-.3,.37-.67,.4-1.05,.03-.38-.04-.76-.22-1.1-.18-.34-.44-.62-.77-.81-.33-.19-.7-.29-1.08-.27h-8.88c-.31,0-.61,.07-.89,.21-.28,.14-.52,.34-.7,.59l-11.3,14.89c-.07,.1-.17,.18-.28,.24-.11,.06-.23,.09-.35,.09s-.25-.03-.36-.09c-.11-.06-.21-.14-.28-.24l-11.87-15.63h-9.89c-.37,0-.74,.11-1.06,.3-.32,.2-.57,.48-.74,.82-.17,.34-.24,.71-.2,1.09s.18,.73,.4,1.03l36.49,48.31h9.89c.37,0,.74-.1,1.06-.3,.32-.2,.57-.48,.74-.82,.17-.34,.24-.71,.2-1.09-.04-.37-.18-.73-.4-1.03l-16.55-22.11Z"/>
    <path class="cls-2" d="M291.06,51.7h-6.75c-.13,0-.27-.03-.38-.1-.12-.06-.22-.16-.29-.27-.07-.11-.12-.24-.13-.38,0-.13,.01-.27,.07-.39l6.38-14.21c.07-.13,.17-.23,.3-.31,.12-.07,.27-.11,.41-.11s.29,.04,.41,.11c.12,.07,.23,.18,.3,.31l15.14,33.69c.16,.36,.42,.66,.74,.87,.32,.21,.7,.32,1.09,.33h7.83c.33,0,.66-.09,.96-.25,.29-.16,.54-.39,.72-.68,.18-.28,.29-.61,.31-.94s-.03-.67-.17-.98l-21.32-47.5c-.16-.36-.41-.66-.73-.87-.32-.21-.7-.32-1.09-.32h-8.36c-.39,0-.77,.11-1.09,.32-.32,.21-.58,.51-.73,.87l-21.33,47.5c-.14,.31-.2,.65-.17,.98,.03,.34,.13,.66,.32,.94,.18,.28,.43,.51,.73,.68,.3,.16,.62,.24,.96,.24h7.83c.38,0,.76-.11,1.08-.32,.32-.21,.57-.51,.73-.86l2.82-6.01c.16-.35,.42-.64,.74-.85,.32-.21,.69-.32,1.07-.32h14.75c.33,0,.67-.08,.96-.24,.3-.16,.55-.39,.73-.68,.18-.28,.29-.61,.32-.94s-.03-.67-.17-.98l-3.21-7.1c-.15-.35-.4-.65-.71-.87-.31-.22-.68-.34-1.06-.36Z"/>
    <path class="cls-2" d="M459.27,50.85l-12.97,17.15c-.23,.3-.37,.66-.4,1.03-.04,.37,.03,.75,.2,1.09,.17,.34,.42,.62,.74,.82,.32,.2,.68,.3,1.06,.3h8.88c.31,0,.62-.07,.89-.21,.28-.14,.52-.34,.7-.59l8.11-10.71c.11-.14,.17-.31,.17-.49s-.06-.35-.17-.49l-5.95-7.9c-.07-.1-.17-.18-.28-.24s-.23-.09-.36-.09-.25,.03-.36,.09-.21,.14-.28,.24Z"/>
  </g>
</svg>