<svg xmlns="http://www.w3.org/2000/svg" xmlns:xlink="http://www.w3.org/1999/xlink" viewBox="0 0 290.99 349.86"><defs><style>.cls-1,.cls-57,.cls-58{isolation:isolate;}.cls-2{fill:url(#linear-gradient);}.cls-3{fill:#067287;}.cls-4{fill:#ffb850;}.cls-5{fill:#1a7c7c;}.cls-11,.cls-26,.cls-29,.cls-46,.cls-6{mix-blend-mode:soft-light;}.cls-6{fill:url(#linear-gradient-2);}.cls-7{fill:#0e2371;}.cls-8{fill:url(#linear-gradient-3);}.cls-47,.cls-48,.cls-49,.cls-60,.cls-9{fill:none;}.cls-32,.cls-9{stroke:#067287;}.cls-44,.cls-47,.cls-60,.cls-9{stroke-linecap:round;stroke-linejoin:round;}.cls-27,.cls-28,.cls-32,.cls-44,.cls-47,.cls-60,.cls-9{stroke-width:0.99px;}.cls-10,.cls-44{fill:#3656b3;}.cls-12{fill:url(#linear-gradient-4);}.cls-13,.cls-27,.cls-28,.cls-47,.cls-48{stroke:#c65347;}.cls-13,.cls-27,.cls-28,.cls-48,.cls-49{stroke-miterlimit:10;}.cls-13{stroke-width:1.98px;fill:url(#linear-gradient-5);}.cls-14{fill:#ffaf99;}.cls-15{fill:#ff7b48;}.cls-16{fill:#29c7cc;}.cls-17{fill:#5d1a72;}.cls-18{fill:url(#linear-gradient-6);}.cls-19{fill:#c65347;}.cls-20,.cls-32{fill:#fbfadc;}.cls-21{fill:url(#linear-gradient-7);}.cls-22{fill:#ea7d6a;}.cls-23{fill:#0492ae;}.cls-24{fill:#93372b;}.cls-25{fill:url(#linear-gradient-8);}.cls-26{fill:url(#linear-gradient-9);}.cls-27{fill:url(#linear-gradient-10);}.cls-28{fill:url(#linear-gradient-11);}.cls-29{fill:url(#linear-gradient-12);}.cls-30{fill:url(#linear-gradient-13);}.cls-31{fill:#e0644e;}.cls-33{fill:#ed386e;}.cls-34{fill:#d83a21;}.cls-35{fill:url(#linear-gradient-14);}.cls-36{fill:#122c7a;}.cls-37{fill:url(#linear-gradient-15);}.cls-38{fill:#fff;}.cls-39{fill:#5dda6d;}.cls-40{fill:url(#linear-gradient-16);}.cls-41{fill:#d2d2d2;}.cls-42{fill:url(#linear-gradient-17);}.cls-43{fill:#e9dbe3;}.cls-44,.cls-60{stroke:#0e2371;}.cls-45{fill:#ff7c48;}.cls-46{fill:url(#linear-gradient-18);}.cls-48,.cls-49{stroke-width:0.66px;}.cls-49{stroke:#18357c;}.cls-50{fill:url(#linear-gradient-19);}.cls-51{fill:#cc2b61;}.cls-52{fill:#243f84;}.cls-53{fill:url(#linear-gradient-20);}.cls-54{fill:url(#linear-gradient-21);}.cls-55{fill:url(#linear-gradient-22);}.cls-56{fill:#9b246a;}.cls-57,.cls-58{opacity:0.56;}.cls-57{fill:url(#linear-gradient-23);}.cls-58{fill:url(#linear-gradient-24);}.cls-59{fill:#ddd6ff;}</style><linearGradient id="linear-gradient" x1="5501.32" y1="5187.14" x2="5501.35" y2="5186.73" gradientTransform="matrix(292, 0, 0, -242.38, -1606227.94, 1257386.36)" gradientUnits="userSpaceOnUse"><stop offset="0.01" stop-color="#29c7cc"/><stop offset="1" stop-color="#0095b3"/></linearGradient><linearGradient id="linear-gradient-2" x1="5498.35" y1="5194.76" x2="5497.94" y2="5194.76" gradientTransform="matrix(255.68, 0, 0, -173.07, -1405629.82, 899271.82)" gradientUnits="userSpaceOnUse"><stop offset="0.01" stop-color="gray"/><stop offset="1"/></linearGradient><linearGradient id="linear-gradient-3" x1="5499.96" y1="5180" x2="5500.19" y2="5179.86" gradientTransform="matrix(272.65, 0, 0, -382.12, -1499461.72, 1979670.67)" gradientUnits="userSpaceOnUse"><stop offset="0" stop-color="#29c7cc"/><stop offset="1" stop-color="#138e92"/></linearGradient><linearGradient id="linear-gradient-4" x1="5501.41" y1="5185.52" x2="5501.01" y2="5185.52" gradientTransform="matrix(292.59, 0, 0, -266.93, -1609443.08, 1384470.12)" xlink:href="#linear-gradient-2"/><linearGradient id="linear-gradient-5" x1="5325.8" y1="5246.2" x2="5325.8" y2="5246.6" gradientTransform="matrix(33.4, 0, 0, -59.38, -177652.92, 311717.21)" gradientUnits="userSpaceOnUse"><stop offset="0.01" stop-color="#ffaf99"/><stop offset="0.58" stop-color="#ed6f5f"/></linearGradient><linearGradient id="linear-gradient-6" x1="5342.24" y1="5245.31" x2="5342.24" y2="5245.72" gradientTransform="matrix(35.41, 0, 0, -59.25, -189095.32, 310949.25)" gradientUnits="userSpaceOnUse"><stop offset="0.01" stop-color="#ffaf99"/><stop offset="0.71" stop-color="#ed6f5f"/></linearGradient><linearGradient id="linear-gradient-7" x1="5235.72" y1="5193.79" x2="5235.72" y2="5193.38" gradientTransform="matrix(22.23, 0, 0, -182.6, -116297.23, 948596.09)" xlink:href="#linear-gradient-2"/><linearGradient id="linear-gradient-8" x1="5489.29" y1="5182.23" x2="5489.29" y2="5181.82" gradientTransform="matrix(185.17, 0, 0, -328.46, -1016412.68, 1702343.07)" xlink:href="#linear-gradient"/><linearGradient id="linear-gradient-9" x1="5483.04" y1="5188.34" x2="5483.04" y2="5187.93" gradientTransform="matrix(163.26, 0, 0, -234.25, -894944.78, 1215606.02)" xlink:href="#linear-gradient-2"/><linearGradient id="linear-gradient-10" x1="5448.62" y1="5278.83" x2="5448.21" y2="5278.83" gradientTransform="matrix(87.05, 0, 0, -43.59, -474128.99, 230399.82)" gradientUnits="userSpaceOnUse"><stop offset="0.01" stop-color="#ffaf99"/><stop offset="1" stop-color="#ed6f5f"/></linearGradient><linearGradient id="linear-gradient-11" x1="5441.04" y1="5278.83" x2="5440.64" y2="5278.83" gradientTransform="matrix(78.02, 0, 0, -43.59, -424363.78, 230415.59)" xlink:href="#linear-gradient-10"/><linearGradient id="linear-gradient-12" x1="5487.39" y1="5191.72" x2="5487.39" y2="5191.31" gradientTransform="matrix(175.39, 0, 0, -198.87, -962371.9, 1032744.98)" xlink:href="#linear-gradient-2"/><linearGradient id="linear-gradient-13" x1="5420.34" y1="5252.35" x2="5420.63" y2="5252.25" gradientTransform="matrix(62.26, 0, 0, -54.32, -337373.86, 285439.88)" gradientUnits="userSpaceOnUse"><stop offset="0" stop-color="#f89582"/><stop offset="1" stop-color="#ffaf99"/></linearGradient><linearGradient id="linear-gradient-14" x1="5395.21" y1="5254.76" x2="5394.27" y2="5254.76" gradientTransform="matrix(49.62, 0, 0, -54.18, -267622.85, 284924.18)" xlink:href="#linear-gradient-10"/><linearGradient id="linear-gradient-15" x1="5415.39" y1="5253.19" x2="5415.74" y2="5252.97" gradientTransform="matrix(61.11, 0, 0, -54.55, -330704.92, 286771.85)" xlink:href="#linear-gradient-10"/><linearGradient id="linear-gradient-16" x1="5497.92" y1="5194.18" x2="5497.52" y2="5194.18" gradientTransform="matrix(248.95, 0, 0, -179.34, -1368565.52, 931767.9)" gradientUnits="userSpaceOnUse"><stop offset="0" stop-color="#e8d1dc"/><stop offset="1" stop-color="#d1d1dc"/></linearGradient><linearGradient id="linear-gradient-17" x1="5501.01" y1="5426.88" x2="5501.41" y2="5426.88" gradientTransform="matrix(289.66, 0, 0, -18.72, -1593379.63, 101914.57)" gradientUnits="userSpaceOnUse"><stop offset="0" stop-color="#e6c2d7"/><stop offset="1" stop-color="#d0ccf6"/></linearGradient><linearGradient id="linear-gradient-18" x1="5498.89" y1="5194.7" x2="5498.49" y2="5194.7" gradientTransform="matrix(266.92, 0, 0, -178.67, -1467467.7, 928432.57)" xlink:href="#linear-gradient-2"/><linearGradient id="linear-gradient-19" x1="5374.83" y1="5263.21" x2="5374.83" y2="5262.16" gradientTransform="matrix(44.07, 0, 0, -48.16, -236690.17, 253640.03)" xlink:href="#linear-gradient-10"/><linearGradient id="linear-gradient-20" x1="175.31" y1="135.14" x2="175.31" y2="145.28" gradientTransform="matrix(1, 0, 0, 1, 0, 0)" xlink:href="#linear-gradient-10"/><linearGradient id="linear-gradient-21" x1="5300.32" y1="5329.98" x2="5300.32" y2="5329.56" gradientTransform="matrix(29.39, 0, 0, -28.28, -155593.77, 150846.21)" xlink:href="#linear-gradient-10"/><linearGradient id="linear-gradient-22" x1="170.44" y1="146.59" x2="187.33" y2="146.59" gradientTransform="matrix(1, 0, 0, 1, 0, 0)" xlink:href="#linear-gradient-10"/><linearGradient id="linear-gradient-23" x1="13751.12" y1="3891.84" x2="13756.7" y2="3891.84" gradientTransform="matrix(-0.85, -0.52, -0.52, 0.85, 13952.12, 3906.28)" xlink:href="#linear-gradient-10"/><linearGradient id="linear-gradient-24" x1="202.59" y1="97.07" x2="208.75" y2="97.07" gradientTransform="matrix(1, 0, 0, 1, 0, 0)" xlink:href="#linear-gradient-10"/></defs><g class="cls-1"><g id="Layer_2" data-name="Layer 2"><g id="Layer_1-2" data-name="Layer 1"><g id="Group_1365" data-name="Group 1365"><g id="Group_1361" data-name="Group 1361"><g id="Group_1318" data-name="Group 1318"><path id="Path_3593" data-name="Path 3593" class="cls-2" d="M100.18,238.5c78.71,43.87,110.08-19.88,86.16-83.35l-13.58-.34c-.2,22.95-5.95,41.31-25.23,42.72s-30.77-19.38-47.25-20.63C100.28,176.9,45.78,208.17,100.18,238.5Z"/><path id="Path_3594" data-name="Path 3594" class="cls-3" d="M147,253.43c11.69,0,21.63-3.48,29.56-10.33,19.58-16.91,23.67-52.31,10.18-88.1l-.1-.26-14.28-.36v.42c-.24,27.26-8.36,41.1-24.84,42.31-10.35.76-18.51-5-26.4-10.66-6.78-4.83-13.19-9.39-20.79-10h-.13l-.11.06a72.64,72.64,0,0,0-12.25,9.34c-5.6,5.34-12.27,13.72-12.21,23.34.07,10.7,8.27,20.68,24.37,29.65,16.7,9.31,32,14.2,45.48,14.54Zm39-97.86c13.25,35.36,9.22,70.25-10,86.89-17.16,14.82-44,13.28-75.61-4.33l-.21.37.21-.37c-15.82-8.82-23.88-18.55-23.94-28.93-.06-9.31,6.47-17.5,12-22.72a71.93,71.93,0,0,1,12-9.15c7.31.6,13.59,5.07,20.24,9.81,7.52,5.35,15.29,10.88,25,10.88.62,0,1.26,0,1.9-.07,9.14-.67,15.91-5.21,20.12-13.51,3.55-7,5.35-16.56,5.5-29.2Z"/></g><g id="Group_1319" data-name="Group 1319"><path id="Path_3595" data-name="Path 3595" class="cls-4" d="M182.46,236.18c-9.82,12.93-25.7,19.63-47.32,15.71a40.65,40.65,0,0,1-5.95-3C145.61,220,177.4,233.76,182.46,236.18Z"/><path id="Path_3596" data-name="Path 3596" class="cls-5" d="M147,253.32a48.72,48.72,0,0,0,16.36-2.67,41.32,41.32,0,0,0,19.38-14.28l.23-.31-.35-.17a57.25,57.25,0,0,0-22.5-5.41,35,35,0,0,0-16.5,3.61c-5.93,3-10.87,7.93-14.67,14.6l-.15.27.26.16a39.28,39.28,0,0,0,6,3.06l.06,0A66.77,66.77,0,0,0,147,253.32Zm35-17c-10.52,13.64-26.67,18.92-46.74,15.3a39.41,39.41,0,0,1-5.61-2.85c15.86-27.45,45.61-15.6,52.35-12.45Z"/></g><path id="Path_3597" data-name="Path 3597" class="cls-6" d="M127.8,224.05c50.53,15,61.77-23.69,64.28-41.08,6.65,52.19-26.05,93-93.16,55.61a84.73,84.73,0,0,1-9.43-6C89,222.31,96.5,214.75,127.8,224.05Z"/><path id="Path_3606" data-name="Path 3606" class="cls-7" d="M76.13,131.15c3-4.65,8.49-2.86,8.49-2.86s-1.88-7.27,5-7.89c3.41-.31,5.82,1.54,6.41,2.92,3.64-3.34,10.36-3.69,13.11,1.78,3.36,6.68-5,12.52-5,12.52l-13.09,1.71s-6,16.1-9.77,15.6-4.08-14-4.08-14S73.15,135.81,76.13,131.15Z"/><path id="Path_3607" data-name="Path 3607" class="cls-8" d="M41.83,215.93c9.41-32,33.52-41.14,33.52-41.14l10.42,1.13,4,1.51v-4.54a44.23,44.23,0,0,1,9.11,2.94c1,.41,2,.89,3,1.42l1.14.59,1.12.61,1,.6.2.12c.32.19.64.38,1,.59.49.3.86.54,1.24.79l1.07.72.26.18.9.65.2.15,1.1.83.15.12.93.75.3.25.84.71.26.23c.36.32.72.64,1.07,1l.17.16.89.85.32.32c.27.26.53.53.79.8l.28.3c.35.36.69.74,1,1.12l.17.19c.29.32.57.65.85,1l.32.39.73.9.29.37c.32.42.65.84,1,1.28,0,.07.09.14.14.2l.81,1.15.3.45.67,1,.27.43c.3.48.6,1,.89,1.47l.11.19.75,1.34.27.5c.2.39.4.78.59,1.17.09.16.17.33.25.49.26.54.52,1.1.78,1.66s.53,1.2.74,1.74c.08.18.15.37.23.55l.51,1.32c.07.19.14.37.2.55.23.62.45,1.24.66,1.88s.41,1.32.6,2c.06.2.11.4.17.6.14.49.28,1,.41,1.49l.15.61c.18.69.34,1.39.5,2.1.21,1,.41,1.94.61,2.91,0,.07,0,.15,0,.22.18.92.36,1.84.53,2.76l.06.35c.16.89.32,1.78.46,2.67,0,.14.05.28.07.41.14.88.28,1.75.4,2.62,0,.14.05.29.07.43l.36,2.59c0,.14,0,.27.05.41.11.87.22,1.73.32,2.59,0,.11,0,.23,0,.34.1.88.2,1.76.29,2.63a1.79,1.79,0,0,1,0,.23c.1.91.18,1.81.26,2.71s.15,1.81.22,2.69c0,.07,0,.13,0,.2.06.85.12,1.69.17,2.53,0,.1,0,.2,0,.3.05.81.1,1.61.14,2.41,0,.12,0,.23,0,.35,0,.78.07,1.56.1,2.33l0,.36c0,.76.05,1.52.08,2.27,0,.11,0,.22,0,.33,0,.75,0,1.5.05,2.24v.27q0,1.13,0,2.22v.18c0,.76,9.9,67.26,9.9,67.26H68.63l0,.4-31.87.86S31.77,250.16,41.83,215.93Z"/><path id="Path_3608" data-name="Path 3608" class="cls-9" d="M134.07,231.59c0,.14,0,.27.05.41.11.87.22,1.73.32,2.59,0,.12,0,.23,0,.34.11.88.2,1.76.29,2.63a1.79,1.79,0,0,1,0,.23c.1.91.18,1.81.26,2.71s.16,1.81.22,2.69c0,.07,0,.13,0,.2.06.85.12,1.69.17,2.53,0,.1,0,.2,0,.3.06.81.1,1.61.14,2.41,0,.12,0,.23,0,.35,0,.78.08,1.56.11,2.33v.36c0,.76.06,1.52.08,2.27,0,.11,0,.22,0,.33,0,.76,0,1.5.05,2.24v.27q0,1.13,0,2.22v.18c0,.76,9.9,67.26,9.9,67.26H68.63l0,.4-31.87.87-.65-13.54s-1.69-72.88,5.77-98.24"/><path id="Path_3609" data-name="Path 3609" class="cls-10" d="M115.16,310.45s42.09-10.15,46.63-35.79c8.57-48.48,40.58-55.58,40.58-55.58,36.84,6.55,29.09,35.65,9.39,81.1-18.16,41.89-102.12,22.47-102.12,22.47Z"/><g id="Group_1327" data-name="Group 1327" class="cls-11"><path id="Path_3610" data-name="Path 3610" class="cls-12" d="M115.16,310.45s42.09-10.15,46.63-35.79c8.57-48.48,40.58-55.58,40.58-55.58,36.84,6.55,28.46,35.38,9.39,81.1-17.58,42.12-102.12,22.47-102.12,22.47Z"/></g><path id="Path_3611" data-name="Path 3611" class="cls-7" d="M221.5,207.06l-6.08-1.71-9.29,3.21,3.75,5.83Z"/><path id="Path_3612" data-name="Path 3612" class="cls-10" d="M171.93,304.06v-2.42l0-2.22c0-.1,0-.19,0-.28,0-.73,0-1.48.05-2.23,0-.11,0-.22,0-.34,0-.74.05-1.5.08-2.26,0-.13,0-.25,0-.37,0-.77.07-1.54.11-2.32,0-.12,0-.24,0-.36,0-.79.08-1.6.13-2.41l0-.3c.06-.83.12-1.68.18-2.52,0-.07,0-.14,0-.2.07-.89.14-1.78.22-2.68s.17-1.81.26-2.72l0-.23c.09-.88.18-1.75.28-2.64,0-.11,0-.22.05-.33.1-.86.2-1.73.32-2.6,0-.13,0-.27.05-.41l.36-2.58c0-.15.05-.29.07-.44.13-.86.26-1.74.4-2.61,0-.14.05-.27.07-.41.15-.89.3-1.78.46-2.67,0-.12,0-.24.07-.35.16-.92.34-1.84.52-2.77,0-.07,0-.14.05-.21q.28-1.46.6-2.91c.16-.72.33-1.41.5-2.1,0-.21.1-.41.16-.62.13-.5.26-1,.4-1.49.06-.2.12-.4.17-.6.19-.63.38-1.25.58-1.86s.46-1.35.68-2l.21-.55c.16-.45.33-.89.51-1.33.07-.18.14-.36.22-.54.22-.54.45-1.07.68-1.59.32-.72.58-1.27.85-1.82l.24-.48.6-1.17.27-.5c.24-.45.49-.9.75-1.34a2,2,0,0,1,.11-.2c.29-.5.58-1,.88-1.46l.28-.43c.22-.35.44-.69.67-1l.3-.44c.26-.39.53-.77.81-1.15,0-.07.09-.14.14-.21.32-.43.64-.86,1-1.28l.29-.36c.24-.31.48-.61.73-.91.1-.13.21-.25.32-.38.28-.34.56-.66.85-1l.17-.19c.34-.38.68-.75,1-1.12l.28-.29.79-.8.32-.32.9-.86.16-.16,1.07-1,.27-.23.84-.71.3-.26.93-.74.15-.12c.36-.29.73-.57,1.1-.84l.2-.14.9-.65.26-.18,1-.67,1.2-.77,1.08-.67.2-.11,1-.59,1.13-.62,1-.54c1.17-.59,2.19-1.06,3.16-1.48a44.38,44.38,0,0,1,9.13-2.93v4.54l3.95-1.52,5.4-1.72s35.49,4.35,43.81,42.44c7.61,34.85,3.2,68.27,3.2,68.27H173.2l0-.26Z"/><path id="Path_3613" data-name="Path 3613" class="cls-13" d="M206.44,202.3v12.36s1.92,2.3,7.78.72c5.56-1.51,5.62-2.14,5.61-2.2s.13-21.3.13-21.3Z"/><path id="Path_3614" data-name="Path 3614" class="cls-14" d="M198.2,177l7.55-4.3s9,1.56,10.35,13.38l.66,8c-.07.34.16,9.18-6.24,11.3-2.54.85-7.5.87-9.84-.63C196.58,202.1,198,184.67,198.2,177Z"/><g id="Group_1328" data-name="Group 1328"><path id="Path_3615" data-name="Path 3615" class="cls-7" d="M192.7,327.91a.34.34,0,0,0,.34-.34c0-.36.57-36.23,4-62.69,2.69-20.69,12.53-43.79,12.63-44a.33.33,0,0,0-.18-.45.34.34,0,0,0-.44.18c-.1.23-10,23.42-12.68,44.2-3.44,26.5-4,62.42-4,62.78a.34.34,0,0,0,.33.35Z"/></g><path id="Path_3616" data-name="Path 3616" class="cls-4" d="M193.15,242.07a2.56,2.56,0,0,0,1.51,3.23c1.18.27,2.42-.74,2.77-2.25s-.33-3-1.52-3.22A2.55,2.55,0,0,0,193.15,242.07Z"/><path id="Path_3617" data-name="Path 3617" class="cls-4" d="M187.87,270.57c-.29,1.52.44,2.94,1.63,3.16a2.54,2.54,0,0,0,2.68-2.33c.29-1.53-.44-2.94-1.63-3.17S188.16,269.05,187.87,270.57Z"/><path id="Path_3618" data-name="Path 3618" class="cls-4" d="M185.33,301.08c-.19,1.54.63,2.9,1.83,3.05s2.33-1,2.52-2.51-.63-2.91-1.83-3.06A2.56,2.56,0,0,0,185.33,301.08Z"/><path id="Path_3619" data-name="Path 3619" class="cls-15" d="M268.51,300.51a26.1,26.1,0,0,1,7.16-4.63,200.22,200.22,0,0,1-1.22,32H261A26.44,26.44,0,0,1,268.51,300.51Z"/><path id="Path_3620" data-name="Path 3620" class="cls-10" d="M136.86,156.54l6,9.47h-12Z"/><path id="Path_3621" data-name="Path 3621" class="cls-16" d="M267.93,97.21l-4.27-4.28a1.16,1.16,0,1,1,1.64-1.65l4.28,4.28,4.27-4.28a1.16,1.16,0,0,1,1.64,0,1.17,1.17,0,0,1,0,1.63l-4.27,4.28,4.27,4.27a1.16,1.16,0,0,1-1.64,1.65l-4.28-4.28-4.27,4.28a1.16,1.16,0,1,1-1.64-1.65h0Z"/><path id="Path_3622" data-name="Path 3622" class="cls-17" d="M80.93,164.43,87,162.72l9.29,3.21-3.76,5.83Z"/><g id="Group_1329" data-name="Group 1329"><path id="Path_3623" data-name="Path 3623" class="cls-18" d="M95.61,159.31v12.37s-2.73,2.65-8.59,1.06c-5.57-1.51-5.62-2.14-5.62-2.19s-.12-21.31-.12-21.31Z"/><path id="Path_3624" data-name="Path 3624" class="cls-19" d="M90.6,173.57a7.61,7.61,0,0,0,5.23-1.67l.1-.09V159.15L81,148.63v.62c0,.2.12,20.79.12,21.28,0,.3.21,1,5.85,2.52A14.13,14.13,0,0,0,90.6,173.57Zm4.69-2c-.52.42-3.18,2.26-8.19.91-4.44-1.21-5.25-1.82-5.38-2,0-.5,0-3.41-.12-20.63l13.69,9.62Zm-13.57-1v0Z"/></g><g id="Group_1330" data-name="Group 1330"><path id="Path_3625" data-name="Path 3625" class="cls-20" d="M95.74,166.5,92.36,170l-11-5.33a.47.47,0,0,0-.62.2l-5.36,10,8.55,6.45a3.94,3.94,0,0,0,5.46-.69l3.36-4.24,4.21,3.78a1.53,1.53,0,0,0,2.14-.12,1.58,1.58,0,0,0,.35-.68l.63-2.83-3.48-9.77a.5.5,0,0,0-.64-.3A.39.39,0,0,0,95.74,166.5Z"/><path id="Path_3626" data-name="Path 3626" class="cls-3" d="M86.28,182.46a4.34,4.34,0,0,0,3.41-1.66l3.08-3.89,3.88,3.48a1.94,1.94,0,0,0,2.73-.15,2,2,0,0,0,.45-.87l.66-3L97,166.53a.92.92,0,0,0-1.17-.55.87.87,0,0,0-.35.22h0l-3.17,3.24-10.76-5.2a.89.89,0,0,0-1.17.38L74.81,174.9l8.84,6.67A4.3,4.3,0,0,0,86.28,182.46Zm6.39-6.77L89,180.28a3.51,3.51,0,0,1-4.88.62l-8.25-6.23L81.09,165a0,0,0,0,1,.06,0l11.3,5.46L96,166.79h0a.08.08,0,0,1,.11,0l0,0,3.44,9.65-.6,2.72a1.1,1.1,0,0,1-1.31.83,1.16,1.16,0,0,1-.49-.26Z"/></g><g id="Group_1331" data-name="Group 1331"><path id="Path_3627" data-name="Path 3627" class="cls-21" d="M67.83,210.6s6.61,37.92,9,74H69.42C69.42,236.75,67.83,210.6,67.83,210.6Z"/></g><path id="Path_3628" data-name="Path 3628" class="cls-14" d="M85.14,143.42s0,.13,0,.35Z"/><g id="Group_1333" data-name="Group 1333"><g id="Group_1332" data-name="Group 1332"><path id="Path_3629" data-name="Path 3629" class="cls-14" d="M77,144.43a4.3,4.3,0,0,1,1.1-2.11c2.25-2.45,5.58-.31,7.07.88l.19.16c1-.32,5.12-2.05,3.83-8.43,0,0,13,.38,14.91-.58l.07,3.27c.62,8.54,1.78,22.74-4,24.8a16.52,16.52,0,0,1-8,.53c-7.21-1-7.62-11-7.62-11a6.35,6.35,0,0,1-.87-.05,8.16,8.16,0,0,1-4.9-2.57A5.82,5.82,0,0,1,77,144.43Z"/><path id="Path_3630" data-name="Path 3630" class="cls-22" d="M104.46,145.68l.23,0q0,1.59,0,3.18h-.26c-1.35,0-2.45-.72-2.45-1.6S103.11,145.68,104.46,145.68Z"/><path id="Path_3631" data-name="Path 3631" class="cls-19" d="M95.31,163.51a14.32,14.32,0,0,0,4.94-.79c5.91-2.11,4.93-15.64,4.27-24.59l0-.53-.08-3.75-.45.22c-1.53.76-11.17.65-14.75.55l-.4,0,.08.39c1.16,5.77-2.16,7.55-3.46,8l-.06,0c-1.43-1.15-5-3.53-7.5-.85a4.6,4.6,0,0,0-1.17,2.26h0a6.09,6.09,0,0,0,1.78,5.18,8.5,8.5,0,0,0,5.1,2.68c.21,0,.41,0,.61,0,.15,1.7,1.21,10,7.87,11A21,21,0,0,0,95.31,163.51Zm8.48-28.72.07,2.84,0,.54c.6,8.23,1.6,22-3.86,24a16.28,16.28,0,0,1-7.89.52c-6.87-1-7.35-10.6-7.36-10.69v-.31h-.31a5.64,5.64,0,0,1-.82,0,7.82,7.82,0,0,1-4.71-2.47,5.45,5.45,0,0,1-1.63-4.63h0a4,4,0,0,1,1-2c2-2.2,5-.37,6.65.92l.18.15.14.11.16-.05c.89-.29,5.22-2,4.11-8.41,2.09.06,11.54.26,14.22-.46Z"/></g></g><path id="Path_3632" data-name="Path 3632" class="cls-22" d="M89.24,147.29c0,.88,1.1,1.6,2.46,1.6s2.45-.72,2.45-1.6-1.1-1.61-2.45-1.61S89.24,146.4,89.24,147.29Z"/><g id="Group_1334" data-name="Group 1334"><path id="Path_3633" data-name="Path 3633" class="cls-23" d="M109.73,285.28a.35.35,0,0,0,.34-.35c0-.36-.57-36.27-4-62.78-2.7-20.78-12.3-42.69-12.4-42.9a.33.33,0,0,0-.43-.18h0a.33.33,0,0,0-.17.44h0c.09.22,9.66,22,12.34,42.72,3.43,26.47,4,62.34,4,62.7A.34.34,0,0,0,109.73,285.28Z"/></g><path id="Path_3634" data-name="Path 3634" class="cls-20" d="M109.28,199.44c.34,1.51-.34,2.95-1.52,3.22a2.89,2.89,0,0,1-1.25-5.46C107.69,196.92,108.93,197.93,109.28,199.44Z"/><path id="Path_3635" data-name="Path 3635" class="cls-20" d="M114.55,227.93a2.55,2.55,0,0,1-1.62,3.17c-1.19.23-2.39-.82-2.69-2.34s.44-2.94,1.63-3.17S114.26,226.41,114.55,227.93Z"/><path id="Path_3636" data-name="Path 3636" class="cls-15" d="M77.37,257.87a26.23,26.23,0,0,0-7.17-4.63,199.58,199.58,0,0,0,1.23,32.05H84.84A26.45,26.45,0,0,0,77.37,257.87Z"/><g id="Group_1335" data-name="Group 1335"><path id="Path_3637" data-name="Path 3637" class="cls-3" d="M92.72,176.64a.35.35,0,0,0,.34-.35h0l-.36-6.35a.34.34,0,0,0-.36-.32A.35.35,0,0,0,92,170l.36,6.35A.34.34,0,0,0,92.72,176.64Z"/></g><path id="Path_3638" data-name="Path 3638" class="cls-24" d="M93.8,139.55a.07.07,0,0,1,.06-.07.06.06,0,0,1,.06.05c.29,1.56.78,5.17-.68,5.75s-2.37-4.06-2.68-6.09c.45,1.63,1.53,5,2.46,4.84S93.84,140.92,93.8,139.55Z"/><path id="Path_3639" data-name="Path 3639" class="cls-24" d="M103.69,139.71c.38,1.43.84,4.79-.53,5.34s-2.2-3.79-2.5-5.68c.43,1.53,1.43,4.67,2.3,4.52S103.72,141,103.69,139.71Z"/><g id="Group_1336" data-name="Group 1336"><path id="Path_3640" data-name="Path 3640" class="cls-25" d="M69.26,234.47c35.22,103-100.45,91.57-61.85,3.06C23.9,199.73,42,184.88,75.35,174.79"/><path id="Path_3641" data-name="Path 3641" class="cls-3" d="M38.66,308.28A36.25,36.25,0,0,0,59.29,302c7.76-5.39,13-13.78,15.15-24.28,2.51-12.17.9-26.76-4.78-43.37l-.8.28c14.89,43.55-2.07,61.14-10,66.68a35.25,35.25,0,0,1-20.13,6.12,37.89,37.89,0,0,1-24-8.52c-7.43-6.12-23-24.32-6.89-61.19,15.8-36.22,32.88-52,67.69-62.51l-.25-.81c-17.8,5.38-30.29,11.88-40.48,21.07C24.12,205.05,15.31,218.37,7,237.37c-6.1,14-8.24,26.8-6.36,38.12a38.12,38.12,0,0,0,35.81,32.72C37.2,308.26,37.93,308.28,38.66,308.28Z"/></g><path id="Path_3644" data-name="Path 3644" class="cls-4" d="M247.6,206.4a6.47,6.47,0,1,0,7.1-5.79,6.49,6.49,0,0,0-7.1,5.79Z"/><g id="Group_1339" data-name="Group 1339"><path id="Path_3645" data-name="Path 3645" class="cls-4" d="M41.24,307.36a37.75,37.75,0,0,1-39.67-30.8c14.19-1.37,23.9,5.66,30.22,13.46A58.06,58.06,0,0,1,41.24,307.36Z"/></g><g id="Group_1340" data-name="Group 1340"><path id="Path_3647" data-name="Path 3647" class="cls-26" d="M233.27,244s16.18,70.37-45.29,71.33l56.21,23.57L254,302.73S237.62,262,238.2,261.1,233.27,244,233.27,244Z"/></g><path id="Path_3648" data-name="Path 3648" class="cls-27" d="M152.82,323.19c.78-3.3,3.69-12.71,7.13-12.82a14.28,14.28,0,0,1,5.21.89,6,6,0,0,1,6.1-.16c4.5-1.17,16.72,4.19,16.72,4.19L182.78,328s-8.25-5-11-2.59A5.32,5.32,0,0,1,166,326c-2.33,1.14-5.85.78-7-.43C156.14,326.49,152.19,325.82,152.82,323.19Z"/><path id="Path_3649" data-name="Path 3649" class="cls-28" d="M94.85,323.19c.79-3.3,3.69-12.71,7.13-12.82a14.25,14.25,0,0,1,5.21.89,6,6,0,0,1,6.11-.16,10.17,10.17,0,0,1,3.92,0,11,11,0,0,1,8.3,15.11h0a1.67,1.67,0,0,1-2.32.85c-2.54-1.31-7.4-3.44-9.37-1.7a5.32,5.32,0,0,1-5.78.61c-2.32,1.14-5.85.78-7-.43C98.17,326.49,94.23,325.82,94.85,323.19Z"/><path id="Path_3650" data-name="Path 3650" class="cls-29" d="M7.73,237.4c1.59-3.62,3.18-7,4.8-10.25-4.14,13.38-16.61,51.08,8.15,65,21.57,12.17,40.59.24,51-7.89-4.6,11.46-11.88,17.95-21.8,21.37C21.41,314.52-14.64,288.67,7.73,237.4Z"/><g id="Group_1341" data-name="Group 1341"><path id="Path_3651" data-name="Path 3651" class="cls-19" d="M98.87,149.64c.36,0,3-.56,3.7-1.61a1,1,0,0,0,.15-.81,4.13,4.13,0,0,0-1-1.54,10.47,10.47,0,0,1-2.44-4.87.35.35,0,0,0-.41-.25.34.34,0,0,0-.26.4h0a11.15,11.15,0,0,0,2.58,5.14,3.87,3.87,0,0,1,.83,1.28.33.33,0,0,1-.06.27c-.39.6-2.16,1.12-3.19,1.31a.35.35,0,0,0-.28.39h0A.33.33,0,0,0,98.87,149.64Z"/></g><path id="Path_3652" data-name="Path 3652" class="cls-30" d="M83.61,151.91a8.16,8.16,0,0,1-4.9-2.57A5.82,5.82,0,0,1,77,144.43a4.3,4.3,0,0,1,1.1-2.11c2.25-2.45,5.58-.31,7.07.88l.19.16a6.17,6.17,0,0,0,1.72-.91c.17,7.46,2.3,20.22,15,18.52a4.53,4.53,0,0,1-2,1.45,16.64,16.64,0,0,1-8,.53c-7.21-1-7.62-11-7.62-11A8.46,8.46,0,0,1,83.61,151.91Z"/><path id="Path_3653" data-name="Path 3653" class="cls-31" d="M78.52,143.68c-1,1.26-.41,3.51,1.42,5s4.16,1.72,5.2.45.4-3.51-1.43-5S79.56,142.41,78.52,143.68Z"/><g id="Group_1342" data-name="Group 1342"><path id="Path_3654" data-name="Path 3654" class="cls-23" d="M15.05,278.14a.34.34,0,0,0,.34-.28c5.9-31.61,34.65-45.63,34.94-45.77a.34.34,0,0,0-.3-.62h0c-.3.15-29.35,14.3-35.31,46.26a.32.32,0,0,0,.27.39h.06Z"/></g><g id="Group_1345" data-name="Group 1345"><g id="Group_1343" data-name="Group 1343"><path id="Path_3655" data-name="Path 3655" class="cls-32" d="M71.47,192.16a8.65,8.65,0,0,1-.67-1.71c-.64-2.68.54-5.49,1.21-8,.8-3,.71-6.17-1.29-8.71-4.11-5.24-12.54-4-15.61,1.67-2.29,4.22-.19,8.76-1,13.25-.66,3.49-2,6.74-1.4,10.36a12.4,12.4,0,0,0,4.85,8c3.44,2.51,8.76,3.19,12.6,1.16,3.61-1.91,4.74-6.33,3.79-10.09a22.69,22.69,0,0,0-1.43-3.89C72.19,193.52,71.81,192.84,71.47,192.16Z"/></g><g id="Group_1344" data-name="Group 1344"><path id="Path_3657" data-name="Path 3657" class="cls-32" d="M52.78,161.77c-.17,3,1.28,5.51,3.24,5.61s3.68-2.23,3.85-5.22-1.29-5.51-3.25-5.62S52.94,158.77,52.78,161.77Z"/></g></g><g id="Group_1346" data-name="Group 1346"><path id="Path_3659" data-name="Path 3659" class="cls-33" d="M83,213.37,83,243c-1.18,1-7.26,1.79-13.71,1.79-6.22,0-12.24-.72-13.68-1.68V213.57Z"/><path id="Path_3660" data-name="Path 3660" class="cls-34" d="M69.27,245.05c5.69,0,12.51-.65,13.92-1.86l.11-.09,0-30-28.07.2v30l.14.1C56.89,244.31,62.84,245.05,69.27,245.05Zm13.4-2.26c-1.35.91-7.24,1.63-13.4,1.63s-11.77-.67-13.36-1.54v-29l26.8-.19Z"/></g><path id="Path_3661" data-name="Path 3661" class="cls-7" d="M55.59,213.37c0,1.22,6.14,2.21,13.72,2.21s13.72-1,13.72-2.21-6.14-2.2-13.72-2.2S55.59,212.15,55.59,213.37Z"/><path id="Path_3662" data-name="Path 3662" class="cls-10" d="M79.32,214.86a59.9,59.9,0,0,1-10,.72,63.37,63.37,0,0,1-9.92-.68c1.18-.74,5.18-1.25,9.92-1.25S78.06,214.16,79.32,214.86Z"/><g id="Group_1350" data-name="Group 1350"><g id="Group_1347" data-name="Group 1347"><path id="Path_3663" data-name="Path 3663" class="cls-35" d="M55.57,222.36s-.09,3.25,1.06,3.72c1.48.61,5.58.09,7.27-.08a5.54,5.54,0,0,1,2.51.11c1.85.68,2.36,2.89,1.91,4.73a2,2,0,0,1-.21.58A2.6,2.6,0,0,1,69.32,233a4.36,4.36,0,0,1-.7,3.83,2.73,2.73,0,0,1-.87.75,3,3,0,0,1,1,2,3.6,3.6,0,0,1-2.88,3.9l-.79.25c-1.64.52-11.19,1.81-13.5-3C45.14,227.5,55.23,222.2,55.57,222.36Z"/><path id="Path_3664" data-name="Path 3664" class="cls-19" d="M60,244.62a21.83,21.83,0,0,0,5.16-.57l.1,0,.67-.21A3.94,3.94,0,0,0,69,239.57a3.51,3.51,0,0,0-.77-2,2.94,2.94,0,0,0,.61-.61,4.65,4.65,0,0,0,.75-4.11,3.67,3.67,0,0,0-1.1-1.65,2.13,2.13,0,0,1,.11-.33c.48-2-.09-4.35-2.11-5.1a5.85,5.85,0,0,0-2.64-.13l-.57.06c-1.86.2-5.3.56-6.56,0-.72-.29-.89-2.43-.87-3.42v-.2l-.18-.09c-.44-.21-2.09.91-3.16,2-2.38,2.37-5.7,7.72-1.3,16.84C52.69,243.89,56.64,244.62,60,244.62Zm5.17-18.39a3.22,3.22,0,0,1,1.15.18c1.67.61,2.13,2.65,1.72,4.35a1.84,1.84,0,0,1-.19.51l-.15.28.28.15A2.27,2.27,0,0,1,69,233.08a4,4,0,0,1-.65,3.54,2.44,2.44,0,0,1-.77.66l-.4.22.35.3a2.69,2.69,0,0,1,.85,1.82,3.32,3.32,0,0,1-2.64,3.58c-.17,0-.41.11-.71.21l-.1,0c-1.8.58-11,1.7-13.13-2.8-2.47-5.13-2.76-9.61-.87-13.32a10.83,10.83,0,0,1,4.3-4.52c0,1,.19,3.13,1.26,3.57,1.3.53,4.22.28,6.86,0l.56-.06c.44,0,.84-.08,1.22-.08Z"/></g><g id="Group_1348" data-name="Group 1348"><path id="Path_3665" data-name="Path 3665" class="cls-19" d="M60.72,232.71a27,27,0,0,0,7.54-1,.26.26,0,0,0,.16-.33.27.27,0,0,0-.32-.17,27.18,27.18,0,0,1-13,.37.26.26,0,0,0-.31.2.26.26,0,0,0,.19.31A26,26,0,0,0,60.72,232.71Z"/></g><g id="Group_1349" data-name="Group 1349"><path id="Path_3666" data-name="Path 3666" class="cls-19" d="M61,239a16.53,16.53,0,0,0,6.85-1.25.26.26,0,0,0,.11-.35.27.27,0,0,0-.34-.12s-4.92,2.35-12.72.43a.25.25,0,0,0-.31.16v0a.24.24,0,0,0,.18.31h0A25.55,25.55,0,0,0,61,239Z"/></g></g><g id="Group_1352" data-name="Group 1352"><path id="Path_3667" data-name="Path 3667" class="cls-20" d="M205.36,209.13l4.7,3.46,11.44-5.53,5.36,9.57L218,224.07a3.2,3.2,0,0,1-4.52-.41l-.05-.06-3.71-4.67-2,1.85a3.23,3.23,0,0,1-5.28-1.7Z"/><g id="Group_1351" data-name="Group 1351"><path id="Path_3668" data-name="Path 3668" class="cls-36" d="M209.7,219.28A.34.34,0,0,0,210,219l.36-6.35a.35.35,0,0,0-.31-.37h0a.34.34,0,0,0-.36.3v0l-.36,6.35a.35.35,0,0,0,.32.37h0Z"/></g></g><path id="Path_3669" data-name="Path 3669" class="cls-7" d="M222.45,192.16a53,53,0,0,1-2.52,5.4c-1-.09-1.68-1.25-2.24-2.81A8.18,8.18,0,0,0,222.45,192.16Z"/><path id="Path_3670" data-name="Path 3670" class="cls-7" d="M197.34,178.09c-.34-2.06-.5-6.32,1.6-8.38,2.35-2.3,14.26-5,19,1.91,3.77.56,8.53,1.1,7.48,9.7a36.66,36.66,0,0,1-1.22,5.76,4.23,4.23,0,0,0-1.09-2.13c-2.25-2.45-5.58-.31-7.07.89-1.47-11.61-10.32-13.16-10.32-13.16L198.2,177c0,.92-.07,2-.12,3.11l0,1.09S197.38,178.3,197.34,178.09Z"/><path id="Path_3671" data-name="Path 3671" class="cls-7" d="M206.87,170.36s13.2.75,9.2,15.48l-.17.13c-.73-.39-3.33-2.21-3.53-8.68,0,0-7.79-2.22-14.28,2.54v.27c0-1.15.09-2.2.12-3.11Z"/><g id="Group_1354" data-name="Group 1354"><g id="Group_1353" data-name="Group 1353"><path id="Path_3672" data-name="Path 3672" class="cls-14" d="M198.08,180.1v-.27c6.49-4.76,14.28-2.54,14.28-2.54.2,6.47,2.8,8.29,3.53,8.68l.17-.13c1.49-1.2,4.82-3.34,7.07-.89a4.23,4.23,0,0,1,1.09,2.13,6.05,6.05,0,0,1-1.78,5.08,8.19,8.19,0,0,1-4.75,2.59,6.46,6.46,0,0,1-1,.07c-.13,2.25-.83,8.75-6.19,10.53-2.55.85-7.5.87-9.85-.63C197.07,202.41,197.73,188.6,198.08,180.1Z"/><path id="Path_3673" data-name="Path 3673" class="cls-22" d="M200.09,189.19l-2.29,1c0-1.06,0-1.58,0-2.64,1.26.07,2.26.75,2.26,1.6Z"/><path id="Path_3674" data-name="Path 3674" class="cls-19" d="M206.23,206.24a15.15,15.15,0,0,0,4.39-.59c5-1.65,6.16-7.17,6.4-10.52a5.85,5.85,0,0,0,.72-.07,8.49,8.49,0,0,0,4.94-2.68,6.4,6.4,0,0,0,1.86-5.36,4.58,4.58,0,0,0-1.17-2.28c-2.46-2.67-6.06-.3-7.5.85-.89-.56-3-2.49-3.19-8.31v-.23l-.23-.06c-.08,0-8-2.21-14.54,2.59l-.13.09,0,.93c-.36,8.77-.92,22,2.77,24.39A11.23,11.23,0,0,0,206.23,206.24Zm10.19-11.74v.3c-.18,3.15-1.2,8.67-6,10.25-2.64.88-7.39.81-9.58-.59-3.38-2.17-2.81-15.73-2.47-23.83l0-.63c5.66-4.06,12.37-2.76,13.66-2.46.27,6.41,2.89,8.28,3.7,8.71l.18.1.17-.14.15-.13c1.62-1.28,4.62-3.11,6.65-.91a3.93,3.93,0,0,1,1,2,5.75,5.75,0,0,1-1.7,4.81,7.92,7.92,0,0,1-4.57,2.49,7.14,7.14,0,0,1-.93.06Z"/></g></g><path id="Path_3675" data-name="Path 3675" class="cls-14" d="M216.1,186.06l0,.34C216.11,186.19,216.1,186.07,216.1,186.06Z"/><path id="Path_3676" data-name="Path 3676" class="cls-37" d="M214.79,185.07a4.39,4.39,0,0,0,1.11.9l.17-.13c1.49-1.2,4.82-3.34,7.07-.89a4.23,4.23,0,0,1,1.09,2.13,6.05,6.05,0,0,1-1.78,5.08,8.19,8.19,0,0,1-4.75,2.59,6.46,6.46,0,0,1-1,.07c-.13,2.25-.83,8.75-6.19,10.53-2.55.85-7.51.87-9.85-.63a3.52,3.52,0,0,1-1.1-1.26C213.1,205.32,214.87,192.51,214.79,185.07Z"/><path id="Path_3677" data-name="Path 3677" class="cls-24" d="M207.38,186.55a.56.56,0,0,1-.51-.59l.09-1.36a.55.55,0,0,1,1.1.07L208,186A.56.56,0,0,1,207.38,186.55Z"/><path id="Path_3678" data-name="Path 3678" class="cls-22" d="M211.35,189.69c0,.88-1.1,1.6-2.46,1.6s-2.45-.72-2.45-1.6,1.1-1.61,2.45-1.61S211.35,188.8,211.35,189.69Z"/><g id="Group_1355" data-name="Group 1355"><path id="Path_3679" data-name="Path 3679" class="cls-38" d="M206.22,190.88c1.89,0,3.36-2.38,3.36-5.41s-1.51-5.41-3.36-5.41-3.36,2.43-3.36,5.41S204.37,190.88,206.22,190.88Zm0-10.26c1.54,0,2.8,2.18,2.8,4.85s-1.26,4.85-2.8,4.85-2.8-2.18-2.8-4.85S204.68,180.62,206.22,180.62Z"/></g><path id="Path_3680" data-name="Path 3680" class="cls-24" d="M199.29,186.29a.56.56,0,0,1-.51-.59l.09-1.36a.55.55,0,0,1,1.1.07l-.1,1.37A.55.55,0,0,1,199.29,186.29Z"/><g id="Group_1356" data-name="Group 1356"><path id="Path_3681" data-name="Path 3681" class="cls-38" d="M197.3,190.78l.16-.54c-1.32-.4-2.32-2.45-2.32-4.77,0-2.67,1.25-4.85,2.8-4.85s2.8,2.18,2.8,4.85a7.34,7.34,0,0,1-.7,3.19l.5.25a7.85,7.85,0,0,0,.76-3.44c0-3-1.51-5.41-3.36-5.41s-3.36,2.43-3.36,5.41C194.58,188.07,195.72,190.31,197.3,190.78Z"/></g><g id="Group_1357" data-name="Group 1357"><path id="Path_3682" data-name="Path 3682" class="cls-19" d="M201.56,192.47a.35.35,0,0,0,.34-.35.34.34,0,0,0-.25-.33,14,14,0,0,1-3.74-1.39,5.83,5.83,0,0,1,1.33-.64,5,5,0,0,0,1.91-1.07c.82-1.05.69-4.75.67-5.16a.32.32,0,0,0-.33-.33h0a.33.33,0,0,0-.33.35h0c.06,1.49,0,4.08-.53,4.72a5,5,0,0,1-1.63.85c-1,.41-1.78.73-1.78,1.3,0,.22,0,.91,4.28,2Z"/></g><g id="Group_1358" data-name="Group 1358"><path id="Path_3683" data-name="Path 3683" class="cls-38" d="M203.14,186a.28.28,0,0,0,.28-.29.29.29,0,0,0-.15-.25,2.6,2.6,0,0,0-2.39-.19.28.28,0,0,0-.1.39.27.27,0,0,0,.37.1h0a2.11,2.11,0,0,1,1.86.21A.27.27,0,0,0,203.14,186Z"/></g><path id="Path_3684" data-name="Path 3684" class="cls-31" d="M222.72,186.31c1,1.26.41,3.51-1.42,5s-4.16,1.71-5.2.45-.41-3.51,1.42-5S221.68,185.05,222.72,186.31Z"/><path id="Path_3685" data-name="Path 3685" class="cls-39" d="M73.89,284l-5.1-13.13s-1.21-2.58,2.8-4.06l21.17-.11a3.87,3.87,0,0,1,3.32,2.7c1.15,2.72,5.33,13.35,5.33,13.35a3.86,3.86,0,0,1-3.48,4.06,36,36,0,0,1-7.9,0s2.16-7.68,2.09-7.85-.15-4.58-.15-4.58H78.43S74.66,279,73.89,284Z"/><path id="Rectangle_73" data-name="Rectangle 73" class="cls-20" d="M52,236.95h96.28a2.22,2.22,0,0,1,2.22,2.22v60.31a2.23,2.23,0,0,1-2.23,2.23H52a2.22,2.22,0,0,1-2.22-2.22V239.17A2.23,2.23,0,0,1,52,236.95Z"/><path id="Rectangle_75" data-name="Rectangle 75" class="cls-40" d="M48.78,236.95h96.29a2.22,2.22,0,0,1,2.22,2.22v60.31a2.23,2.23,0,0,1-2.23,2.23H48.78a2.23,2.23,0,0,1-2.23-2.23V239.17A2.22,2.22,0,0,1,48.78,236.95Z"/><rect id="Rectangle_76" data-name="Rectangle 76" class="cls-20" x="78.85" y="267.29" width="36.15" height="26.07" rx="2.23"/><path id="Path_3686" data-name="Path 3686" class="cls-41" d="M69.46,327.25H179.1a3.79,3.79,0,0,0,0-7.58H69.46a3.79,3.79,0,0,0,0,7.58Z"/><path id="Path_3687" data-name="Path 3687" class="cls-42" d="M69.46,327.25H179.1a3.79,3.79,0,0,0,0-7.58H69.46a3.79,3.79,0,0,0,0,7.58Z"/><path id="Path_3688" data-name="Path 3688" class="cls-43" d="M90.72,327.25h12.15V282.89a6.08,6.08,0,1,0-12.15,0Z"/><g id="Group_1359" data-name="Group 1359"><path id="Path_3689" data-name="Path 3689" class="cls-7" d="M5.3,328.22H280.44a1,1,0,0,0,0-2H5.3a1,1,0,1,0,0,2Z"/></g><path id="Path_3690" data-name="Path 3690" class="cls-44" d="M226.86,216.63c32.79.56,77.54,58.79,59.49,104.92-18.27,46.67-93.77,24.57-103.89,5.94l5.52-12.2s41.72,5.9,48.4-19.26c2.72-10.28,1.55-25.4-.79-39.69l-1-4.66"/><path id="Path_3691" data-name="Path 3691" class="cls-45" d="M268.1,319.11c8.55-5.48,15.12-5.85,20-4.09a64.88,64.88,0,0,1-2.11,6.36c-6.14,15.68-18.74,23.59-33.14,26.48C251.41,341.84,251.3,329.88,268.1,319.11Z"/><path id="Path_3692" data-name="Path 3692" class="cls-46" d="M270.53,327.71c15.8-11.64,17.5-34.85,16.54-50.73,4.38,14.63,4.91,30.19-.72,44.57-18.27,46.67-93.77,24.58-103.9,5.94C197,340.61,245.13,346.4,270.53,327.71Z"/><path class="cls-47" d="M161.89,318.1s.5-5.2,3.27-6.84"/><path class="cls-47" d="M169,316.54s-.16-3.73,2.31-5.44"/><path class="cls-47" d="M104.87,315.87a6.87,6.87,0,0,1,2.32-4.61"/><path class="cls-47" d="M110.57,315.13s.18-3.09,2.73-4"/></g><path id="Path_3693" data-name="Path 3693" class="cls-48" d="M102.11,161a4.44,4.44,0,0,1-2,1.45,16.64,16.64,0,0,1-8,.53c-7.21-1-7.62-11-7.62-11a8.46,8.46,0,0,1-.87-.05,8.16,8.16,0,0,1-4.9-2.57A5.82,5.82,0,0,1,77,144.43a4.26,4.26,0,0,1,1.1-2.11c2.25-2.45,5.58-.31,7.07.88l.19.16a6.17,6.17,0,0,0,1.72-.91"/><path id="Path_3694" data-name="Path 3694" class="cls-48" d="M214.79,185.07a4.39,4.39,0,0,0,1.11.9l.17-.13c1.49-1.2,4.82-3.34,7.07-.89a4.23,4.23,0,0,1,1.09,2.13,6.05,6.05,0,0,1-1.78,5.08,8.19,8.19,0,0,1-4.75,2.59,6.46,6.46,0,0,1-1,.07c-.13,2.25-.83,8.75-6.19,10.53-2.55.85-7.51.87-9.85-.63a3.52,3.52,0,0,1-1.1-1.26"/><g id="Group_1363" data-name="Group 1363"><path id="Path_3695" data-name="Path 3695" class="cls-7" d="M199.88,197.24c.06-1.31,1.38-1.59,2.47-.89a2,2,0,0,0,2.78-.42,2.13,2.13,0,0,0,.16-.25c.7-1.1,2-1.41,2.61-.25s-.58,4.32-3.13,4.89C201.92,201,199.81,198.56,199.88,197.24Z"/></g><path id="Path_3696" data-name="Path 3696" class="cls-31" d="M208.06,196.19s-4.24.42-3.87,4.22a2.8,2.8,0,0,0,.58-.09A4.54,4.54,0,0,0,208.06,196.19Z"/><g id="Group_1364" data-name="Group 1364"><path id="Path_3697" data-name="Path 3697" class="cls-19" d="M98.58,157.34c2.08-.25,2.06-3.72,2.06-3.86a.35.35,0,0,0-.35-.34.34.34,0,0,0-.34.34c0,.84-.2,3-1.29,3.17s-1.74-2-1.94-2.72a.34.34,0,0,0-.41-.25h0a.34.34,0,0,0-.25.41C96.15,154.45,97,157.34,98.58,157.34Z"/></g><g id="Layer_2-2" data-name="Layer 2"><path id="Path_3698" data-name="Path 3698" class="cls-49" d="M288.46,315.19a64,64,0,0,1-2.11,6.36c-6.14,15.68-18.74,23.59-33.14,26.49"/></g></g><g id="Group_1337" data-name="Group 1337"><path id="Path_3642" data-name="Path 3642" class="cls-7" d="M234.62,199.74a.39.39,0,0,0,.3,0s1.22-.69,3.14-2a.37.37,0,0,0-.4-.62c-1.9,1.25-3.09,1.92-3.11,1.93a.37.37,0,0,0-.13.5A.34.34,0,0,0,234.62,199.74Zm6.15-4a.43.43,0,0,0,.33-.05c1-.7,2-1.44,3-2.19a.37.37,0,0,0,.06-.52.36.36,0,0,0-.51-.06c-1,.74-2,1.47-2.94,2.16a.38.38,0,0,0-.08.52h0a.42.42,0,0,0,.18.14Zm5.8-4.47a.36.36,0,0,0,.36-.06c.93-.77,1.87-1.58,2.78-2.4a.37.37,0,0,0,0-.52h0a.38.38,0,0,0-.52,0c-.91.82-1.84,1.62-2.76,2.38a.37.37,0,0,0-.05.52.34.34,0,0,0,.17.11Zm5.46-4.89a.38.38,0,0,0,.37-.08c.88-.87,1.75-1.75,2.57-2.64a.36.36,0,0,0-.53-.5c-.82.87-1.68,1.75-2.55,2.6a.38.38,0,0,0,0,.53h0a.42.42,0,0,0,.14.09Zm5-5.35a.38.38,0,0,0,.4-.11c.8-.95,1.57-1.92,2.3-2.88a.36.36,0,0,0-.09-.51.35.35,0,0,0-.5.07c-.71,1-1.48,1.9-2.27,2.84a.37.37,0,0,0,0,.52h0l.12.07Zm4.4-5.85a.37.37,0,0,0,.42-.15c.69-1,1.34-2.1,1.93-3.14a.37.37,0,0,0-.14-.5h0a.35.35,0,0,0-.5.13h0c-.58,1-1.21,2.07-1.89,3.1a.37.37,0,0,0,.1.51h0l.09,0ZM265,168.8a.36.36,0,0,0,.45-.19c.52-1.13,1-2.28,1.41-3.41a.37.37,0,0,0-.23-.47.37.37,0,0,0-.47.22c-.4,1.11-.86,2.24-1.38,3.35a.37.37,0,0,0,.18.49h0Zm2.47-6.88a.36.36,0,0,0,.47-.24h0q.45-1.8.72-3.63a.37.37,0,0,0-.3-.42h0a.37.37,0,0,0-.42.31,32.79,32.79,0,0,1-.71,3.55.37.37,0,0,0,.24.44Zm1-7.22c.31,0,.48-.13.48-.34a30.47,30.47,0,0,0-.08-3.7.36.36,0,0,0-.4-.33.35.35,0,0,0-.33.39,33.59,33.59,0,0,1,.08,3.62.35.35,0,0,0,.25.36Zm-28.17-13a6.11,6.11,0,0,0,3.64-1.48.37.37,0,0,0-.45-.58,5.5,5.5,0,0,1-3.09,1.34.37.37,0,0,0-.35.39.38.38,0,0,0,.25.33ZM237,140.45a.37.37,0,0,0,.35-.64,7,7,0,0,1-.74-.7,7.49,7.49,0,0,1-1.41-2,.37.37,0,1,0-.67.31h0a9.07,9.07,0,0,0,2.35,3l.12.07Zm30.95,7a.37.37,0,0,0,.48-.42h0c-.09-.48-.2-1-.31-1.44-.18-.75-.37-1.47-.57-2.15a.39.39,0,0,0-.46-.25.37.37,0,0,0-.25.46c.2.66.39,1.37.56,2.1.11.48.21.95.3,1.42a.39.39,0,0,0,.25.28ZM234.36,134a.38.38,0,0,0,.47-.25v0a3.17,3.17,0,0,1,.12-.44,6.78,6.78,0,0,1,1.6-2.51.38.38,0,0,0,0-.52.36.36,0,0,0-.5,0,7.32,7.32,0,0,0-1.76,2.78,4.91,4.91,0,0,0-.15.51.38.38,0,0,0,.24.44Zm11.75,3.51a.37.37,0,0,0,.42-.14,24.33,24.33,0,0,0,1.89-3.19.37.37,0,0,0-.17-.5h0a.38.38,0,0,0-.49.17,23.57,23.57,0,0,1-1.83,3.1.36.36,0,0,0,.09.51h0l.09,0Zm19.74,2.87a.37.37,0,0,0,.47-.23.46.46,0,0,0,0-.26,29.3,29.3,0,0,0-1.65-3.32.37.37,0,0,0-.64.37,27.14,27.14,0,0,1,1.61,3.24A.36.36,0,0,0,265.85,140.41Zm-26.74-11.66a.36.36,0,0,0,.29,0,16,16,0,0,1,3.33-1.28A.37.37,0,0,0,243,127h0a.37.37,0,0,0-.44-.26,16.74,16.74,0,0,0-3.49,1.33.38.38,0,0,0-.16.5h0a.37.37,0,0,0,.21.18Zm10.3,2.28a.38.38,0,0,0,.47-.22c.13-.35.25-.71.37-1.07.27-.78.52-1.6.75-2.45a.36.36,0,0,0-.25-.46.37.37,0,0,0-.46.25h0c-.23.84-.47,1.65-.73,2.41-.12.36-.25.71-.37,1.05a.38.38,0,0,0,.21.48Zm12.74,3.1a.37.37,0,0,0,.47-.24.35.35,0,0,0-.06-.34,21.1,21.1,0,0,0-2.58-2.68.38.38,0,0,0-.52,0h0a.36.36,0,0,0,0,.51h0A21,21,0,0,1,262,134a.43.43,0,0,0,.17.12Zm-16-7.25a22.07,22.07,0,0,1,3.72.16.37.37,0,0,0,.41-.32.36.36,0,0,0-.31-.41h0a19.28,19.28,0,0,0-3.72-.15.37.37,0,0,0-.1.72Zm10.52,2.49a.38.38,0,0,0,.47-.23.37.37,0,0,0-.17-.44,18.18,18.18,0,0,0-3.39-1.54.36.36,0,0,0-.46.23.37.37,0,0,0,.23.47,17.64,17.64,0,0,1,3.25,1.48l.07,0Zm-5.3-5.39a.38.38,0,0,0,.47-.25v0c.23-1.2.41-2.43.56-3.65a.36.36,0,0,0-.3-.41h0a.36.36,0,0,0-.4.32c-.14,1.21-.33,2.42-.55,3.6a.36.36,0,0,0,.24.42Zm.85-7.28c.31,0,.48-.13.49-.33.05-1.25.06-2.49,0-3.69a.37.37,0,0,0-.73,0c0,1.19,0,2.41,0,3.63a.37.37,0,0,0,.25.37Zm-.22-7.31c.36,0,.5-.18.48-.39-.13-1.24-.32-2.47-.55-3.65a.37.37,0,1,0-.73.11v0c.23,1.16.41,2.37.54,3.59a.36.36,0,0,0,.25.31Zm-1.41-7.17a.41.41,0,0,0,.22,0,.38.38,0,0,0,.25-.46,36.11,36.11,0,0,0-1.23-3.49.38.38,0,0,0-.48-.2.39.39,0,0,0-.2.48h0a34.65,34.65,0,0,1,1.2,3.42.36.36,0,0,0,.24.25Zm-2.79-6.76a.37.37,0,0,0,.47-.23.39.39,0,0,0,0-.3,29.85,29.85,0,0,0-2-3.12.37.37,0,0,0-.61.41v0a29.6,29.6,0,0,1,1.94,3.05.39.39,0,0,0,.2.18Zm-4.28-5.9a.37.37,0,0,0,.46-.23.34.34,0,0,0-.08-.37,28.07,28.07,0,0,0-2.71-2.52.37.37,0,0,0-.52,0h0a.36.36,0,0,0,0,.51,28,28,0,0,1,2.65,2.45.31.31,0,0,0,.15.1ZM237.83,85a.37.37,0,0,0,.47-.24.36.36,0,0,0-.16-.43,30.78,30.78,0,0,0-3.26-1.73.37.37,0,0,0-.48.19.37.37,0,0,0,.18.48,30.27,30.27,0,0,1,3.18,1.69l.08,0Z"/></g><g id="Group_1338" data-name="Group 1338"><path id="Path_3643" data-name="Path 3643" class="cls-7" d="M36.34,156.39c.35-.12.44-.33.35-.52,0,0-.22-.52-.57-1.47a.38.38,0,0,0-.47-.22.38.38,0,0,0-.22.48c.36,1,.59,1.51.59,1.51A.36.36,0,0,0,36.34,156.39Zm-1.72-5c.31-.07.43-.28.37-.47-.34-1.12-.65-2.3-.94-3.52a.39.39,0,0,0-.45-.27.35.35,0,0,0-.27.44h0c.29,1.23.61,2.43,1,3.56a.36.36,0,0,0,.34.26Zm-1.71-7.12c.28,0,.42-.24.38-.44-.23-1.21-.42-2.42-.58-3.59a.37.37,0,0,0-.73.09h0c.16,1.19.36,2.41.58,3.64a.38.38,0,0,0,.35.3Zm-1-7.26a.37.37,0,0,0,.38-.37v0c-.09-1.19-.16-2.41-.2-3.63a.36.36,0,0,0-.35-.36.37.37,0,0,0-.37.37s0,0,0,0c0,1.23.09,2.47.19,3.68a.37.37,0,0,0,.35.33Zm-.19-7.31a.38.38,0,0,0,.39-.36c0-.18,0-.36,0-.53,0-1,.1-2.09.19-3.09a.36.36,0,0,0-.33-.4.37.37,0,0,0-.4.33c-.09,1-.16,2.07-.2,3.13,0,.19,0,.37,0,.54a.38.38,0,0,0,.35.38Zm.66-7.29a.36.36,0,0,0,.38-.31c.18-1.18.41-2.38.67-3.57a.37.37,0,0,0-.28-.44.36.36,0,0,0-.44.27h0c-.27,1.21-.49,2.43-.67,3.62a.36.36,0,0,0,.3.42h0ZM34,115.3a.36.36,0,0,0,.36-.27c.34-1.14.72-2.31,1.14-3.45a.37.37,0,0,0-.69-.25c-.43,1.16-.82,2.33-1.15,3.5a.36.36,0,0,0,.24.45h0l.09,0Zm2.52-6.86a.4.4,0,0,0,.36-.22c.48-1.09,1-2.19,1.6-3.26a.38.38,0,0,0-.15-.5.38.38,0,0,0-.5.15c-.59,1.09-1.13,2.2-1.63,3.31a.36.36,0,0,0,.19.48l.13,0Zm43-2.1a4.52,4.52,0,0,0,3.23-1.52.37.37,0,0,0-.51-.53,3.51,3.51,0,0,1-2.93,1.29.38.38,0,0,0-.42.31.37.37,0,0,0,.31.42l.32,0Zm-3-2.29a.39.39,0,0,0,.39-.36.41.41,0,0,0,0-.19,12.47,12.47,0,0,1-1.2-3.34.37.37,0,0,0-.72.16,13.39,13.39,0,0,0,1.28,3.54.37.37,0,0,0,.3.19ZM40,102a.35.35,0,0,0,.32-.17c.65-1,1.33-2,2-3a.37.37,0,0,0-.1-.51.36.36,0,0,0-.5.08c-.71,1-1.41,2-2.06,3a.37.37,0,0,0,.12.51.41.41,0,0,0,.18,0Zm44.51-.11a.38.38,0,0,0,.36-.26,8.34,8.34,0,0,0,.39-2.22,10,10,0,0,0-.07-1.55.39.39,0,0,0-.41-.32.35.35,0,0,0-.32.4h0a8.63,8.63,0,0,1,.06,1.44,7.25,7.25,0,0,1-.35,2,.37.37,0,0,0,.24.47h0l.09,0Zm-40.22-5.8a.37.37,0,0,0,.3-.14c.87-1,1.64-1.89,2.42-2.7a.36.36,0,1,0-.52-.51h0c-.8.82-1.59,1.69-2.35,2.61l-.12.13A.39.39,0,0,0,44,96a.47.47,0,0,0,.22.09ZM74.84,97a.38.38,0,0,0,.38-.38v0c-.07-1.13-.08-2.27,0-3.41V93a.36.36,0,0,0-.36-.38.37.37,0,0,0-.38.35v.2a31.26,31.26,0,0,0,0,3.49.37.37,0,0,0,.35.35Zm8.9-2.23c.36-.12.44-.34.35-.53a16.49,16.49,0,0,0-2-3.18.38.38,0,0,0-.52-.07.37.37,0,0,0-.06.52,15.82,15.82,0,0,1,1.87,3,.38.38,0,0,0,.32.22ZM49.36,90.83a.36.36,0,0,0,.26-.09,34,34,0,0,1,2.85-2.22.36.36,0,1,0-.4-.61h0a33.9,33.9,0,0,0-2.92,2.26.36.36,0,0,0,0,.52.33.33,0,0,0,.26.13Zm25.79-1.14a.38.38,0,0,0,.38-.32c.12-.91.29-1.84.48-2.76a.39.39,0,0,0,.16.2,19.9,19.9,0,0,1,2.91,2.1.37.37,0,0,0,.52,0,.38.38,0,0,0,0-.52,21.66,21.66,0,0,0-3-2.18.37.37,0,0,0-.45.07c0-.15.06-.29.1-.44a.37.37,0,0,0-.28-.44.36.36,0,0,0-.44.25v0c-.28,1.21-.5,2.43-.67,3.63a.36.36,0,0,0,.31.41h0Zm-19.78-3a.31.31,0,0,0,.19,0,26.09,26.09,0,0,1,3.3-1.43.37.37,0,0,0,.23-.46h0a.38.38,0,0,0-.47-.23A24.44,24.44,0,0,0,55.22,86a.36.36,0,0,0,.15.69Zm17.68-1.41a.37.37,0,0,0,.38-.35.38.38,0,0,0-.24-.36,22.07,22.07,0,0,0-3.58-1c-.22,0-.4.1-.43.3a.37.37,0,0,0,.3.43,19.93,19.93,0,0,1,3.46,1l.11,0Zm-10.8-1A21.38,21.38,0,0,1,65.91,84a.38.38,0,0,0,.37-.37.37.37,0,0,0-.35-.37h0a22.92,22.92,0,0,0-3.7.33.38.38,0,0,0-.31.42h0a.36.36,0,0,0,.34.3Zm14.53-1.76a.36.36,0,0,0,.37-.25c.36-1.15.79-2.3,1.24-3.41a.36.36,0,0,0-.19-.48h0a.36.36,0,0,0-.48.19h0c-.46,1.14-.89,2.31-1.27,3.47a.39.39,0,0,0,.24.47Zm2.79-6.76a.38.38,0,0,0,.35-.2c.56-1.09,1.16-2.15,1.79-3.15a.37.37,0,0,0-.14-.51.36.36,0,0,0-.48.12c-.64,1-1.25,2.1-1.83,3.2a.37.37,0,0,0,.16.5h0a.42.42,0,0,0,.15,0Zm3.89-6.19a.37.37,0,0,0,.31-.15c.72-.95,1.5-1.89,2.31-2.8a.38.38,0,0,0,0-.52h0a.37.37,0,0,0-.51,0h0c-.82.92-1.61,1.88-2.35,2.85a.37.37,0,0,0,.07.51.33.33,0,0,0,.21.07Zm4.89-5.43a.35.35,0,0,0,.27-.1c.87-.82,1.81-1.61,2.76-2.35a.37.37,0,0,0,.06-.52.38.38,0,0,0-.52-.06c-1,.76-1.91,1.56-2.81,2.39a.38.38,0,0,0,0,.53.36.36,0,0,0,.25.11Zm5.77-4.49a.39.39,0,0,0,.21-.06l.38-.24c.89-.57,1.82-1.11,2.74-1.61a.37.37,0,0,0,.15-.5h0a.38.38,0,0,0-.5-.15c-.94.51-1.88,1.06-2.79,1.64l-.37.24a.35.35,0,0,0-.12.5h0a.39.39,0,0,0,.3.17Zm6.42-3.47c1.27-.52,2.4-1,3.53-1.39a.36.36,0,0,0,.22-.47h0a.37.37,0,0,0-.47-.22c-1.14.41-2.29.87-3.41,1.37a.37.37,0,0,0-.19.49.38.38,0,0,0,.32.22Zm60.83,1.15a.37.37,0,0,0,.14-.71s-1.29-.48-3.5-1.16a.35.35,0,0,0-.45.23h0a.37.37,0,0,0,.24.46c2.19.67,3.45,1.14,3.46,1.15l.11,0Zm-54-3.64c1.25-.34,2.44-.64,3.64-.9a.37.37,0,0,0,.28-.44h0a.36.36,0,0,0-.42-.28h0c-1.21.27-2.41.57-3.56.9a.37.37,0,0,0-.26.45.37.37,0,0,0,.34.27Zm47,1.47a.37.37,0,0,0,.39-.35.38.38,0,0,0-.28-.37c-1.08-.3-2.27-.6-3.55-.91a.37.37,0,0,0-.45.27.38.38,0,0,0,.27.45c1.28.3,2.46.61,3.54.9Zm-7.12-1.69a.37.37,0,0,0,.39-.35.38.38,0,0,0-.3-.38q-1.72-.36-3.6-.69a.4.4,0,0,0-.43.31.36.36,0,0,0,.3.42c1.25.22,2.44.45,3.58.68Zm-32.7-1.35c1.29-.2,2.5-.35,3.67-.47a.38.38,0,0,0,.33-.41.42.42,0,0,0-.4-.33c-1.19.12-2.41.28-3.65.48a.36.36,0,0,0-.3.42.35.35,0,0,0,.35.31Zm25.5.1a.37.37,0,0,0,.38-.36.36.36,0,0,0-.32-.37c-1.18-.17-2.4-.32-3.64-.45a.36.36,0,0,0-.4.32.37.37,0,0,0,.32.41h0c1.24.13,2.44.28,3.62.45h0Zm-18.24-.87c1.2-.06,2.42-.1,3.67-.12a.37.37,0,0,0,.37-.37.38.38,0,0,0-.36-.37c-1.28,0-2.51.06-3.69.13a.36.36,0,0,0-.34.38h0a.37.37,0,0,0,.35.34Zm11,.1a.36.36,0,0,0,.39-.35.37.37,0,0,0-.35-.39c-1.2-.08-2.43-.15-3.66-.18a.37.37,0,0,0-.37.37.37.37,0,0,0,.35.37c1.21,0,2.44.1,3.63.18Z"/></g><g id="Group_1324" data-name="Group 1324"><g id="Group_1322" data-name="Group 1322"><path id="Path_3602" data-name="Path 3602" class="cls-50" d="M170.9,140.41c.8-1.29,6.12-4.09,8.55-3.14a1.8,1.8,0,0,1,.75.5c.64.76,1.51,3.38-2.1,4.59-.08,1.93.68,2.8,1.34,3.19a2.71,2.71,0,0,0,1.55.38,3.84,3.84,0,0,0,1.68-.49,3.16,3.16,0,0,0,1.22-1.5,3.68,3.68,0,0,0,1.06,2.38,2.76,2.76,0,0,0,2,.7,2.57,2.57,0,0,0,1.6-.61L186.73,155s-9.18,3.79-13.58-.34l-.59-6.79S170,141.86,170.9,140.41Z"/><path id="Path_3603" data-name="Path 3603" class="cls-19" d="M179,156.92a23.2,23.2,0,0,0,7.85-1.62l.16-.07,2.05-9.68-.71.62a2.23,2.23,0,0,1-1.41.54,2.5,2.5,0,0,1-1.77-.62,3.46,3.46,0,0,1-1-2.19l-.14-1.19-.47,1.11a2.76,2.76,0,0,1-1.09,1.34,3.31,3.31,0,0,1-1.53.45,2.43,2.43,0,0,1-1.37-.33,2.8,2.8,0,0,1-1.19-2.69,3.74,3.74,0,0,0,2.58-2.36,3.1,3.1,0,0,0-.56-2.66,2,2,0,0,0-.87-.6c-2.62-1-8.12,1.95-8.93,3.27h0c-.92,1.51.46,7.13.38,8l.87,4.61a4.09,4.09,0,0,0,1,2h0A8.64,8.64,0,0,0,179,156.92Zm7.46-2.15c-1.2.46-9.07,3.28-13-.26l-.54-.56a37.25,37.25,0,0,1-1.31-5.77c0-.43-1-6.65-.43-7.61h0c.71-1.15,5.89-3.89,8.16-3a1.53,1.53,0,0,1,.62.41,2.45,2.45,0,0,1,.43,2.09,3.29,3.29,0,0,1-2.38,2l-.21.07v.21c-.09,2.09.76,3,1.49,3.48a3.07,3.07,0,0,0,1.73.42,4,4,0,0,0,1.82-.53,3,3,0,0,0,.92-.86,3.62,3.62,0,0,0,1,1.7,3.11,3.11,0,0,0,3.35.52Z"/></g><path class="cls-51" d="M181.48,148.87a18.22,18.22,0,0,1-4-.45A17.92,17.92,0,0,1,164.06,127l5.73-25,6.26,1.43-5.73,25a11.45,11.45,0,1,0,22.32,5.12l5.73-25,6.25,1.44-5.73,25A17.9,17.9,0,0,1,181.48,148.87Z"/><path class="cls-52" d="M181.48,148.87a18.22,18.22,0,0,1-4-.45A17.92,17.92,0,0,1,164.06,127l5.73-25,6.26,1.43-5.73,25a11.46,11.46,0,0,0,8.6,13.73Z"/><path class="cls-10" d="M184.61,150.55a17.9,17.9,0,0,1-17.45-21.89l5.73-25,6.26,1.44-5.73,25a11.46,11.46,0,0,0,8.6,13.73C188.17,145.24,187.93,150.55,184.61,150.55Z"/><path class="cls-33" d="M184.61,150.55a17.86,17.86,0,0,1-4-.46l1.44-6.26a11.46,11.46,0,0,0,13.71-8.61l5.73-25,6.26,1.43L202,136.65a17.88,17.88,0,0,1-17.38,13.9Z"/><g id="Group_1321" data-name="Group 1321"><polygon class="cls-53" points="178.55 137.23 177.82 135.63 176.54 135.14 175.04 135.31 174.05 136.29 173.26 137.77 173.02 139.35 172.08 143.35 173.52 145.19 176.01 145.28 177.45 143.57 178.55 137.23"/><path id="Path_3601" data-name="Path 3601" class="cls-19" d="M176,145.43a3.65,3.65,0,0,0,1.53-1.22,16.23,16.23,0,0,0,1.43-6.82,4.78,4.78,0,0,0-.83-1.9,2.78,2.78,0,0,0-3-.58,3.43,3.43,0,0,0-1.61,1.54,17.61,17.61,0,0,0-1.58,5.53,4.17,4.17,0,0,0,0,1.22,3,3,0,0,0,.22.77v0a3.09,3.09,0,0,0,1.51,1.39l.11,0A3.14,3.14,0,0,0,176,145.43Zm-3.3-1.74a2.31,2.31,0,0,1-.16-.57,3.23,3.23,0,0,1,0-1,17.14,17.14,0,0,1,1.51-5.34,2.79,2.79,0,0,1,1.3-1.26,2.15,2.15,0,0,1,2.3.45,2.76,2.76,0,0,1,.68,1.86,43.85,43.85,0,0,1-1,5.44,3.28,3.28,0,0,1-1.62,1.6,2.55,2.55,0,0,1-1.88,0,2.42,2.42,0,0,1-1.19-1.11Z"/></g><g id="Group_1321-2" data-name="Group 1321"><path id="Path_3600" data-name="Path 3600" class="cls-54" d="M178.1,142.36c3.61-1.21,2.73-3.83,2.09-4.59a1.77,1.77,0,0,0-.74-.5,2.26,2.26,0,0,1,1.72-1.61,3,3,0,0,1,3.45,1.9,3.91,3.91,0,0,1,.2,1,3.42,3.42,0,0,1,1.56-1.73,2.48,2.48,0,0,1,2.65.45,3.17,3.17,0,0,1,.87,1.83,17.58,17.58,0,0,1-.48,5.63,3.47,3.47,0,0,1-.36,1.07,2.49,2.49,0,0,1-.42.56,2.69,2.69,0,0,1-1.7.69,2.74,2.74,0,0,1-2-.7,3.63,3.63,0,0,1-1.06-2.27,3.51,3.51,0,0,1-1.23,1.39,3.8,3.8,0,0,1-1.68.49,2.73,2.73,0,0,1-1.55-.38C178.78,145.16,178,144.29,178.1,142.36Z"/><path id="Path_3601-2" data-name="Path 3601" class="cls-19" d="M186.83,147.34H187a3,3,0,0,0,1.9-.77l0,0a2.41,2.41,0,0,0,.47-.63,4.19,4.19,0,0,0,.4-1.16,17.53,17.53,0,0,0,.47-5.73,3.51,3.51,0,0,0-1-2,2.8,2.8,0,0,0-3-.5,3.12,3.12,0,0,0-1.28,1.11l-.06-.17a3.34,3.34,0,0,0-3.82-2.09,2.6,2.6,0,0,0-2,1.84l-.06.27.25.09a1.55,1.55,0,0,1,.62.42,2.43,2.43,0,0,1,.43,2.08,3.27,3.27,0,0,1-2.38,2l-.21.07v.22c-.09,2.08.76,3,1.49,3.48a3.15,3.15,0,0,0,1.73.41,3.88,3.88,0,0,0,1.82-.53,3.32,3.32,0,0,0,.92-.83,3.61,3.61,0,0,0,1,1.67A3.09,3.09,0,0,0,186.83,147.34Zm1.6-1.24a2.37,2.37,0,0,1-1.5.61,2.5,2.5,0,0,1-1.77-.62,3.39,3.39,0,0,1-1-2.07l-.11-1-.48.86a3.14,3.14,0,0,1-1.11,1.26,3.28,3.28,0,0,1-1.53.45,2.43,2.43,0,0,1-1.37-.33,2.8,2.8,0,0,1-1.19-2.69,3.72,3.72,0,0,0,2.58-2.36,3.07,3.07,0,0,0-.56-2.66,1.87,1.87,0,0,0-.6-.48,2,2,0,0,1,1.43-1.12,2.72,2.72,0,0,1,3.06,1.7,3.21,3.21,0,0,1,.18.87l.1,1.16.5-1a3.11,3.11,0,0,1,1.4-1.57,2.13,2.13,0,0,1,2.31.39,2.86,2.86,0,0,1,.78,1.65,16.93,16.93,0,0,1-.48,5.52,3.75,3.75,0,0,1-.32,1,2.74,2.74,0,0,1-.36.48Z"/></g><g id="Group_1323" data-name="Group 1323"><path id="Path_3604" data-name="Path 3604" class="cls-19" d="M183.89,144.28a.33.33,0,0,0,.33-.28l.94-5.42a.34.34,0,0,0-.28-.4h0a.34.34,0,0,0-.4.26v0l-.93,5.42a.34.34,0,0,0,.28.4h.06Z"/></g><path class="cls-55" d="M178.89,149.92c-.95-2.6.7-2.22-2.06-4.19-.68-.49-1-1.62-.3-2l3.3-2.49.88-1.52-.18-1.78-1.1-.86L178,137l-1.7.92-1.5.65-3.33,1.51a1.43,1.43,0,0,0-.78.92l-.22.77.4,2.35.08,1.48a14.08,14.08,0,0,1,.41,2.48c.42,1.4.53,5.22,2.06,6.37,2.14,2.06,6.05,2.52,13,.27l.94-4.46A19.89,19.89,0,0,1,178.89,149.92Z"/><path class="cls-48" d="M178.62,152.14c.86-3,0-5-2.29-6.64a1.29,1.29,0,0,1,.2-2l3.59-2.23c1.39-1.87.36-4.75-1.72-4.25l-7,3a1.48,1.48,0,0,0-.88,1.13l-.1.62.87,7,.4,1.82.64,2.79a2.26,2.26,0,0,0,.68,1.15"/></g><polygon class="cls-56" points="176.6 97.62 176.31 97.46 174.67 100.49 176.03 94.57 171.98 95.21 174.03 93.01 173.79 92.78 171.07 95.69 175.59 94.98 173.79 102.83 176.6 97.62"/><polygon class="cls-56" points="180.41 77.56 174.4 88.67 173.15 91.01 175.6 90.84 174.17 92.37 174.41 92.6 176.43 90.44 173.74 90.63 174.69 88.84 174.82 88.61 179.32 80.28 178.26 84.21 178.58 84.29 180.41 77.56"/><rect class="cls-56" x="177.74" y="85.64" width="0.51" height="0.34" transform="translate(48.42 234.99) rotate(-74.76)"/><polygon class="cls-56" points="182.15 87.31 177.59 87.95 177.97 86.55 177.64 86.46 177.13 88.36 181.32 87.76 177.31 92.54 179.13 92.25 177.53 95.21 177.82 95.37 179.75 91.81 178.14 92.06 182.15 87.31"/><polygon class="cls-57" points="176.74 92.97 178.51 92.69 175.55 98.17 176.46 94.16 175.26 94.35 172.89 94.72 177.26 90.05 174.32 90.25 174.99 88.99 175 88.99 178.24 83 176.67 88.76 180.5 88.22 176.47 93.01 176.74 92.97 176.74 92.97"/><rect class="cls-56" x="201.35" y="100.66" width="1.81" height="0.3" transform="translate(96.14 300.34) rotate(-88.49)"/><polygon class="cls-56" points="207.65 90.34 207.94 90.42 209.12 85.92 208.95 92.47 209.25 92.48 209.49 83.31 207.65 90.34"/><polygon class="cls-56" points="206.62 94.3 202.5 91.08 203.79 98.31 202.21 97.03 202.15 99.36 202.45 99.36 202.49 97.65 204.23 99.06 202.93 91.81 206.79 94.82 207.94 90.42 207.65 90.34 206.62 94.3"/><rect class="cls-56" x="208.61" y="95.09" width="0.83" height="0.3" transform="translate(108.28 301.68) rotate(-88.48)"/><polygon class="cls-56" points="206.08 96.99 208.78 98.81 208.85 96.58 209.15 96.59 209.06 99.36 206.55 97.67 207.59 102.15 207.3 102.22 206.08 96.99"/><polygon class="cls-56" points="202.05 103.03 202.35 103.03 202.22 107.82 204.16 101.49 207.81 104.45 207.41 102.72 207.71 102.65 208.31 105.23 204.32 102.01 201.86 110.04 202.05 103.03"/><polygon class="cls-58" points="204.43 99.6 202.78 98.27 202.59 105.61 204 100.98 205.04 101.81 205.04 101.81 207.32 103.66 205.61 96.31 208.49 98.25 208.55 96.57 208.54 96.56 208.75 88.53 206.97 95.34 203.37 92.53 204.68 99.8 204.42 99.6 204.43 99.6"/><polygon class="cls-52" points="172.92 103.64 169.83 101.97 176.08 103.4 179.18 105.08 172.92 103.64"/><polygon class="cls-51" points="201.51 110.19 198.41 108.51 204.67 109.95 207.76 111.62 201.51 110.19"/><path class="cls-56" d="M169,45.86a11.43,11.43,0,0,1,.51-1.38,12.61,12.61,0,0,1,1.78-2.92l.59.49a11.56,11.56,0,0,0-1.67,2.73c-.18.42-.34.86-.48,1.3a11.61,11.61,0,0,0,6.48,14,11.92,11.92,0,0,0,1.41.52l-.21.73a11.87,11.87,0,0,1-1.51-.55A12.37,12.37,0,0,1,169,45.86Z"/><path class="cls-56" d="M179.13,60.9a11.5,11.5,0,0,0,6-.68,10.45,10.45,0,0,0,1.18-.54l.35.68a11.71,11.71,0,0,1-1.25.57,12.27,12.27,0,0,1-6.39.73Z"/><path class="cls-56" d="M192.47,49.08l.76,0a12,12,0,0,1-.24,2.81l-.75-.15A11.1,11.1,0,0,0,192.47,49.08Z"/><ellipse class="cls-45" cx="180.88" cy="49.42" rx="10.07" ry="10.08"/><path class="cls-56" d="M170.87,46.41a9.21,9.21,0,0,1,.43-1.17A10.42,10.42,0,0,1,180.9,39v.76A9.69,9.69,0,0,0,172,45.55a9.59,9.59,0,0,0-.8,4h-.77A10.1,10.1,0,0,1,170.87,46.41Z"/><path class="cls-56" d="M176,58.66l.35-.68a7.32,7.32,0,0,0,.69.33,9.67,9.67,0,0,0,11.52-2.93l.6.46A10.43,10.43,0,0,1,176.7,59Z"/><path class="cls-56" d="M187.46,42.3l.51-.56a10.51,10.51,0,0,1,2.49,11.86c-.09.21-.19.41-.29.6l-.68-.34c.1-.19.18-.37.27-.56A9.73,9.73,0,0,0,187.46,42.3Z"/><path class="cls-56" d="M180.9,39a10.26,10.26,0,0,1,4.15.87,9.92,9.92,0,0,1,1.6.87l-.42.63a9.63,9.63,0,0,0-1.48-.8,9.5,9.5,0,0,0-3.85-.81Z"/><path class="cls-4" d="M173.54,46.22A8,8,0,0,1,178,42a7.92,7.92,0,0,1,6.12.12,8,8,0,1,1-10.53,4.14Z"/><path class="cls-56" d="M185.29,68.08l.73.22a11.17,11.17,0,0,0-.43,2.13l-.76-.09A12.59,12.59,0,0,1,185.29,68.08Z"/><path class="cls-56" d="M184.81,72.85l.76-.07a11.61,11.61,0,0,0,21.07,5.51l.63.43a12.37,12.37,0,0,1-22.46-5.87Z"/><path class="cls-56" d="M208.67,72.69l.76.07a13.15,13.15,0,0,1-.48,2.47l-.73-.22A11.6,11.6,0,0,0,208.67,72.69Z"/><ellipse class="cls-4" cx="197.12" cy="71.66" rx="10.07" ry="10.08"/><path class="cls-56" d="M187.11,68.63a10.5,10.5,0,0,1,1.67-3.28l.6.46a9.72,9.72,0,0,0,2,13.65l-.45.61A10.33,10.33,0,0,1,188,76.82,10.47,10.47,0,0,1,187.11,68.63Z"/><path class="cls-56" d="M201.23,80.44c.22-.11.45-.22.67-.35a9.69,9.69,0,0,0,4.57-11l.73-.2a10.45,10.45,0,0,1-4.92,11.86c-.24.13-.48.26-.73.37Z"/><path class="cls-56" d="M195.24,61.36a10.45,10.45,0,0,1,11,5.13l.31.59-.69.34c-.09-.19-.18-.37-.28-.55a9.7,9.7,0,0,0-10.17-4.76Z"/><path class="cls-56" d="M188.78,65.35a10.3,10.3,0,0,1,4.83-3.55l.26.72a8.79,8.79,0,0,0-1.53.7,9.68,9.68,0,0,0-3,2.59Z"/><path class="cls-45" d="M190.15,75.61a8,8,0,1,1,10.92,3A8,8,0,0,1,190.15,75.61Z"/><path class="cls-56" d="M215,70.6l.71-.26a11.83,11.83,0,0,0,.67,1.5l-.68.36A12.52,12.52,0,0,1,215,70.6Z"/><path class="cls-56" d="M218.49,75.71l.5-.57a11.6,11.6,0,0,0,18.75-5.37l0-.13a11.51,11.51,0,0,0,.46-3.39H239a12.45,12.45,0,0,1-.5,3.62l0,.13a12.38,12.38,0,0,1-15.26,8.3A12.17,12.17,0,0,1,218.49,75.71Z"/><ellipse class="cls-45" cx="226.65" cy="66.41" rx="10.07" ry="10.08"/><path class="cls-56" d="M216.28,67.73l.75-.1a9.72,9.72,0,0,0,6.92,8.1,9.56,9.56,0,0,0,4,.29l.11.76a10.46,10.46,0,0,1-11.79-9Z"/><path class="cls-56" d="M231.56,58.05l.39-.66a10.45,10.45,0,0,1,4.73,11.93c-.07.26-.16.53-.25.78l-.72-.27c.09-.23.17-.48.24-.72A9.69,9.69,0,0,0,231.56,58.05Z"/><path class="cls-56" d="M218.13,60.35a10.45,10.45,0,0,1,11.43-4l.63.21-.26.72-.59-.2a9.69,9.69,0,0,0-10.59,3.7Z"/><path class="cls-56" d="M216.64,63.39a10.92,10.92,0,0,1,.62-1.59l.69.34a9.68,9.68,0,0,0-.92,5.49l-.75.1a10.43,10.43,0,0,1,.33-4.23Z"/><path class="cls-4" d="M224.42,74.11a8,8,0,0,1,4.45-15.39,8,8,0,0,1,5.46,9.92A8,8,0,0,1,224.42,74.11Z"/><path class="cls-59" d="M249.05,12.71,235.88,56.37Z"/><rect class="cls-45" x="219.66" y="34.16" width="45.6" height="0.76" transform="translate(139.37 256.7) rotate(-73.21)"/><path class="cls-59" d="M234.16,42.26l-2.24,7.43Z"/><rect class="cls-45" x="229.16" y="45.6" width="7.76" height="0.76" transform="translate(121.72 255.81) rotate(-73.21)"/><path class="cls-59" d="M238.94,26.43l-3.59,11.89Z"/><rect class="cls-45" x="230.93" y="31.99" width="12.42" height="0.76" transform="translate(137.66 250.07) rotate(-73.21)"/><path class="cls-59" d="M198.81.11,187.62,37.24Z"/><polygon class="cls-45" points="187.26 37.13 198.44 0 199.17 0.22 187.99 37.35 187.26 37.13"/><path class="cls-59" d="M187.46,18l-2.07,6.85Z"/><rect class="cls-45" x="182.84" y="21.04" width="7.16" height="0.76" transform="translate(112.08 193.71) rotate(-73.21)"/><path class="cls-59" d="M213.92,34.09l-8.49,28.14Z"/><rect class="cls-45" x="194.98" y="47.78" width="29.39" height="0.76" transform="translate(103.02 234.99) rotate(-73.21)"/><path class="cls-59" d="M218.6,18.57l-3.52,11.68Z"/><rect class="cls-45" x="210.74" y="24.03" width="12.21" height="0.76" transform="translate(130.85 224.96) rotate(-73.21)"/><path class="cls-59" d="M211.3,22.4l-8.49,28.14Z"/><rect class="cls-45" x="192.36" y="36.09" width="29.39" height="0.76" transform="translate(112.34 224.17) rotate(-73.21)"/><path class="cls-59" d="M216,6.88l-3.53,11.68Z"/><rect class="cls-45" x="208.11" y="12.34" width="12.21" height="0.76" transform="translate(140.17 214.13) rotate(-73.21)"/><path class="cls-59" d="M184.47,27.88l-.63,2.1Z"/><rect class="cls-45" x="183.06" y="28.55" width="2.19" height="0.76" transform="translate(103.28 196.88) rotate(-73.21)"/><path class="cls-45" d="M180.39,52.13h-.17a1.14,1.14,0,0,1-1-1.15.5.5,0,0,0-.49-.51.51.51,0,0,0-.51.49,2.15,2.15,0,0,0,1.52,2.1v.5a.51.51,0,0,0,.49.51.52.52,0,0,0,.51-.49V53.1a2.15,2.15,0,0,0,1.74-2.27,2.13,2.13,0,0,0-2.08-2,1.14,1.14,0,0,1,.06-2.27,1.12,1.12,0,0,1,1.1,1.16.51.51,0,0,0,.49.51.49.49,0,0,0,.51-.49,2.13,2.13,0,0,0-1.64-2.12V45.2a.5.5,0,0,0-1,0v.48a2.14,2.14,0,0,0,.46,4.21,1.13,1.13,0,0,1,0,2.26Z"/><path class="cls-45" d="M226.63,69a.5.5,0,0,0-.17,0,1.14,1.14,0,0,1-1-1.15.5.5,0,1,0-1,0A2.13,2.13,0,0,0,226,69.92v.5a.49.49,0,0,0,.49.51.5.5,0,0,0,.51-.48V70a2.14,2.14,0,0,0-.34-4.24,1.13,1.13,0,1,1,1.16-1.1.5.5,0,0,0,1,0,2.14,2.14,0,0,0-1.65-2.13l0-.45a.5.5,0,0,0-.49-.51.49.49,0,0,0-.51.48v.49a2.13,2.13,0,0,0,.46,4.2,1.14,1.14,0,0,1,0,2.27Z"/><path class="cls-4" d="M197.25,74.51a.32.32,0,0,0-.17,0,1.13,1.13,0,0,1-1-1.15.5.5,0,0,0-1,0,2.14,2.14,0,0,0,1.52,2.1v.5a.5.5,0,0,0,.49.51.5.5,0,0,0,.51-.49v-.47a2.13,2.13,0,0,0-.34-4.23,1.13,1.13,0,0,1-1.11-1.16,1.14,1.14,0,0,1,2.27,0,.5.5,0,0,0,.49.52.52.52,0,0,0,.51-.49A2.14,2.14,0,0,0,197.8,68v-.46a.5.5,0,1,0-1,0l0,.49a2.13,2.13,0,0,0,.47,4.2,1.14,1.14,0,0,1,0,2.27Z"/><path id="Path_3667-2" data-name="Path 3667" class="cls-60" d="M205.36,209.13l4.7,3.46,11.44-5.53,5.36,9.57L218,224.07a3.2,3.2,0,0,1-4.52-.41l-.05-.06-3.71-4.67-2,1.85a3.23,3.23,0,0,1-5.28-1.7Z"/></g></g></g></svg>